<?xml version="1.0" encoding="UTF-8" standalone="no"?>
<svg
   viewBox="0 0 214 214"
   width="214"
   height="214"
   version="1.1"
   id="svg10"
   sodipodi:docname="tt_ico.svg"
   inkscape:version="1.4 (86a8ad7, 2024-10-11)"
   xmlns:inkscape="http://www.inkscape.org/namespaces/inkscape"
   xmlns:sodipodi="http://sodipodi.sourceforge.net/DTD/sodipodi-0.dtd"
   xmlns="http://www.w3.org/2000/svg"
   xmlns:svg="http://www.w3.org/2000/svg">
  <defs
     id="defs10">
    <clipPath
       id="clip-0">
      <path
         clip-rule="nonzero"
         d="m 3127.5,1310.4102 h 2.1992 v 0.09 H 3127.5 Z m 119.5,0 h 2.1016 v 0.09 H 3247 Z m -120,0.09 h 3.1992 v 0.1016 H 3127 Z m 119.3984,0 h 3.3008 v 0.1016 h -3.3008 z m -119.7968,0.1016 h 4 v 0.098 h -4 z m 119.5,0 H 3250 v 0.098 h -3.8984 z m -119.8008,0.098 h 4.5976 v 0.1016 h -4.5976 z m 119.5,0 h 4.5 v 0.1016 h -4.5 z M 3126,1310.8008 h 5.1992 v 0.098 H 3126 Z m 119.3984,0 h 5.2032 v 0.098 h -5.2032 z m -119.6992,0.098 H 3131.5 V 1311 h -5.8008 z m 119.4024,0 h 5.7968 V 1311 h -5.7968 z M 3125.5,1311 h 6.1992 v 0.1016 H 3125.5 Z m 119.5,0 h 6.1016 v 0.1016 H 3245 Z m -119.6992,0.1016 h 6.5976 v 0.098 h -6.5976 z m 119.5,0 h 6.5 v 0.098 h -6.5 z m -119.6016,0.098 H 3132 v 0.1016 h -6.8008 z m 119.4024,0 h 6.8984 v 0.1016 h -6.8984 z M 3125,1311.3008 h 7.1992 v 0.098 H 3125 Z m 119.3984,0 h 7.3008 v 0.098 h -7.3008 z m -119.5976,0.098 h 7.5976 v 0.1016 h -7.5976 z m 119.3984,0 h 7.6992 v 0.1016 h -7.6992 z m -119.5976,0.1016 h 8 v 0.1016 h -8 z m 119.3984,0 h 8 v 0.1016 h -8 z m -119.5,0.1016 h 8.1992 v 0.098 H 3124.5 Z m 119.3984,0 h 8.3008 v 0.098 h -8.3008 z m -119.5976,0.098 h 8.5976 v 0.1016 h -8.5976 z m 119.5,0 h 8.5 v 0.1016 h -8.5 z m -119.6016,0.1016 H 3133 v 0.098 h -8.8008 z m 119.5,0 h 8.6992 v 0.098 h -8.6992 z m -119.5976,0.098 h 9 V 1312 h -9 z m 119.3984,0 h 9 V 1312 h -9 z M 3124,1312 h 9.1992 v 0.1016 H 3124 Z m 119.3984,0 h 9.3008 v 0.1016 h -9.3008 z m -119.5,0.1016 h 9.5 v 0.098 h -9.5 z m 119.4024,0 h 9.5 v 0.098 h -9.5 z m -119.6016,0.098 h 9.8008 v 0.1016 h -9.8008 z m 119.5,0 h 9.6992 v 0.1016 h -9.6992 z m -119.5976,0.1016 h 10 v 0.098 h -10 z m 119.3984,0 h 10 v 0.098 h -10 z m -119.5,0.098 h 10.1992 V 1312.5 H 3123.5 Z m 119.3984,0 h 10.3008 v 0.1016 h -10.3008 z m -119.5,0.1016 h 10.4024 v 0.1016 h -10.4024 z m 119.4024,0 h 10.3984 v 0.1016 h -10.3984 z m -119.5,0.1016 h 10.5976 v 0.098 h -10.5976 z m 119.5,0 h 10.5 v 0.098 h -10.5 z m -0.1016,0.098 h 10.6992 v 0.1016 h -10.6992 z m -119.5,0 H 3134 v 0.1016 h -10.8008 z m 0,0.1016 h 10.9024 v 0.098 h -10.9024 z m 119.4024,0 H 3253.5 v 0.098 h -10.8984 z m -119.5,0.098 h 11 v 0.1 h -11 z m 119.3984,0 h 11.1016 v 0.1 H 3242.5 Z M 3123,1313 h 11.1992 v 0.1016 H 3123 Z m 119.3984,0 h 11.3008 v 0.1016 h -11.3008 z m -119.5,0.1016 h 11.4024 v 0.098 h -11.4024 z m 119.4024,0 h 11.3984 v 0.098 h -11.3984 z m -119.5,0.098 h 11.5976 v 0.1016 h -11.5976 z m 119.5,0 h 11.5 v 0.1016 h -11.5 z m -0.1016,0.1016 h 11.6992 v 0.098 h -11.6992 z m -119.5,0 H 3134.5 v 0.1992 h -11.8008 z m 119.4024,0.098 H 3254 v 0.1016 h -11.8984 z m -119.5,0.1016 h 12 v 0.1016 h -12 z m 119.3984,0 h 12.1016 V 1313.7 H 3242 Z m -119.5,0.1016 h 12.1992 v 0.1992 H 3122.5 Z m 119.3984,0.098 h 12.3008 v 0.1992 h -12.3008 z m -119.5,0.1016 h 12.4024 V 1314 h -12.4024 z m 119.4024,0.098 h 12.5 v 0.1 h -12.5 z m -0.1016,0.1016 h 12.6016 v 0.1016 h -12.6016 z m -119.3984,0 h 12.5976 v 0.1992 h -12.5976 z m 119.3984,0.1016 h 12.6992 v 0.098 h -12.6992 z m -119.5,0.098 H 3135 v 0.1016 h -12.8008 z m 119.4024,0 h 12.7968 v 0.1016 h -12.7968 z m 0,0.1016 H 3254.5 v 0.098 h -12.8984 z m -119.5,0 h 13 v 0.1992 h -13 z m 119.3984,0.098 h 13.1016 v 0.2032 H 3241.5 Z M 3122,1314.5 h 13.1992 v 0.1992 H 3122 Z m 119.3984,0.1016 h 13.3008 v 0.1992 h -13.3008 z m -0.098,0.1992 h 13.3984 v 0.098 h -13.3984 z m -119.4024,-0.1016 h 13.4024 V 1315 h -13.4024 z m 119.4024,0.1992 h 13.5 v 0.2032 h -13.5 z m -0.1016,0.2032 h 13.6016 v 0.098 h -13.6016 z M 3121.8008,1315 h 13.5976 v 0.3008 h -13.5976 z m 119.3984,0.1992 h 13.6992 v 0.1992 h -13.6992 z m -0.098,0.1992 h 13.7968 v 0.1016 h -13.7968 z m -119.4024,-0.098 H 3135.5 v 0.3008 h -13.8008 z m 119.4024,0.1992 H 3255 v 0.3008 h -13.8984 z m -119.5,0.1016 h 14 V 1316 h -14 z M 3241,1315.8008 h 14.1016 v 0.3008 H 3241 Z m -0.1016,0.3008 h 14.2032 v 0.098 h -14.2032 z M 3121.5,1316 h 14.1992 v 0.5 H 3121.5 Z m 119.3984,0.1992 h 14.3008 v 0.6016 h -14.3008 z m -0.098,0.6016 h 14.3984 V 1317 h -14.3984 z m -143,24.0976 h 1.8984 V 1341 h -1.8984 z m 179.1992,0 h 1.8008 V 1341 H 3277 Z M 3097.1992,1341 h 3.1016 v 0.1016 h -3.1016 z m 179.1016,0 h 3.1992 v 0.1016 h -3.1992 z m -179.5,0.1016 h 3.8008 v 0.098 h -3.8008 z m 179.1992,0 h 3.8008 v 0.098 H 3276 Z m -179.5,0.098 h 4.5 v 0.1016 h -4.5 z m 179.1992,0 h 4.4024 v 0.1016 h -4.4024 z m -179.5,0.1016 h 5.1016 v 0.098 h -5.1016 z m 179.1992,0 h 5 v 0.098 h -5 z m -179.5,0.098 h 5.7032 v 0.1016 h -5.7032 z m 179.1016,0 h 5.8008 V 1341.5 H 3275 Z m -179.3008,0.1016 h 6.1016 v 0.1016 h -6.1016 z m 179.1992,0 h 6 v 0.1016 h -6 z m -179.3984,0.1016 h 6.5 v 0.098 h -6.5 z m 179.1992,0 h 6.4024 v 0.098 h -6.4024 z m -179.3984,0.098 h 6.8008 v 0.1016 h -6.8008 z m 179.1992,0 h 6.8008 v 0.1016 H 3274.5 Z m -179.3984,0.1016 h 7.1992 v 0.098 h -7.1992 z m 179.1992,0 h 7.1992 v 0.098 h -7.1992 z M 3095,1341.8984 h 7.5 V 1342 h -7.5 z m 179.1016,0 h 7.5976 V 1342 h -7.5976 z M 3094.8008,1342 h 7.8984 v 0.1016 h -7.8984 z m 179.0976,0 h 8 v 0.1016 h -8 z m -179.2968,0.1016 h 8.2968 v 0.098 h -8.2968 z m 179.1992,0 H 3282 v 0.098 h -8.1992 z m -179.3008,0.098 h 8.5 v 0.1016 h -8.5 z m 179.1992,0 h 8.4024 v 0.1016 h -8.4024 z m -179.3008,0.1016 h 8.7032 v 0.098 h -8.7032 z m 179.1016,0 h 8.8008 v 0.098 H 3273.5 Z m -179.1992,0.098 h 8.8984 v 0.1016 h -8.8984 z m 179.0976,0 h 9 v 0.1016 h -9 z m -179.2968,0.1016 h 9.1992 v 0.1016 h -9.1992 z m 179.1992,0 h 9.1992 v 0.1016 h -9.1992 z M 3094,1342.6016 h 9.5 v 0.098 h -9.5 z m 179.1992,0 h 9.4024 v 0.098 h -9.4024 z m -179.3008,0.098 h 9.7032 v 0.1016 h -9.7032 z m 179.2032,0 h 9.5976 v 0.1016 h -9.5976 z m -179.3008,0.1016 h 9.8984 v 0.098 h -9.8984 z m 179.0976,0 h 10 v 0.098 h -10 z m -179.1992,0.098 h 10.1016 V 1343 h -10.1016 z m 179.1016,0 H 3283 V 1343 h -10.1992 z M 3093.6016,1343 h 10.2968 v 0.1016 h -10.2968 z m 179.0976,0 h 10.4024 v 0.1016 h -10.4024 z m -179.1992,0.1016 h 10.5 v 0.098 h -10.5 z m 179.1016,0 h 10.5976 v 0.098 h -10.5976 z m -179.2032,0.098 h 10.7032 v 0.1016 h -10.7032 z m 179.1016,0 h 10.6992 v 0.1016 H 3272.5 Z m -179.1992,0.1016 h 10.8984 v 0.098 h -10.8984 z m 179.1992,0 h 10.8008 v 0.098 H 3272.5 Z m -179.3008,0.098 h 11.1016 v 0.1016 h -11.1016 z m 179.1992,0 h 11 v 0.1016 h -11 z m -0.098,0.1016 H 3283.5 v 0.1016 h -11.1992 z m -179.1992,0 h 11.1992 v 0.1016 h -11.1992 z m 0,0.1016 h 11.2968 v 0.098 h -11.2968 z m 179.0976,0 h 11.4024 v 0.098 h -11.4024 z M 3093,1343.6992 h 11.5 v 0.1016 H 3093 Z m -0.1016,0.1016 h 11.7032 v 0.098 h -11.7032 z m 179.2032,-0.1016 h 11.5976 v 0.1992 h -11.5976 z m -179.3008,0.1992 h 11.8984 V 1344 h -11.8984 z m 179.1992,0 h 11.8008 V 1344 H 3272 Z m -0.1016,0.1016 h 12 v 0.1016 h -12 z m -179.1992,0 h 12.1016 v 0.1992 h -12.1016 z m 179.1016,0.1016 H 3284 v 0.1992 h -12.1992 z m -179.1992,0.098 h 12.2968 v 0.1992 h -12.2968 z m 179.0976,0.1016 h 12.4024 v 0.1992 h -12.4024 z m -179.1992,0.098 h 12.5 v 0.2032 h -12.5 z m -0.1016,0.2032 h 12.7032 v 0.098 h -12.7032 z m 179.2032,-0.1016 h 12.5976 v 0.1992 h -12.5976 z m -179.3008,0.1992 h 12.8008 v 0.1016 h -12.8008 z m 0,0.1016 h 12.8984 v 0.098 h -12.8984 z M 3271.5,1344.7 h 12.8008 v 0.1992 H 3271.5 Z m -0.1016,0.1992 h 13 V 1345 h -13 z m -179.1992,0 h 13 V 1345 h -13 z m 0,0.1016 h 13.1016 v 0.1016 h -13.1016 z m 179.1016,0 h 13.0976 v 0.1016 h -13.0976 z m 0,0.1016 H 3284.5 v 0.098 h -13.1992 z m -179.1992,0 h 13.1992 v 0.098 h -13.1992 z m 0,0.098 h 13.2968 v 0.1016 h -13.2968 z M 3092,1345.302 h 13.3984 v 0.098 H 3092 Z m 179.1992,-0.1016 h 13.4024 v 0.3008 h -13.4024 z M 3092,1345.3984 h 13.5 v 0.2032 H 3092 Z m -0.1016,0.2032 H 3105.5 v 0.098 h -13.6016 z m 179.2032,-0.1016 h 13.5976 v 0.3008 h -13.5976 z m -0.1016,0.3008 h 13.6992 v 0.098 H 3271 Z m -179.1016,-0.1016 h 13.7032 V 1346 h -13.7032 z M 3271,1345.8984 h 13.8008 v 0.3008 H 3271 Z M 3091.8008,1346 h 13.8984 v 0.3008 h -13.8984 z m -0.1016,0.3008 h 14 v 0.098 h -14 z m 179.1992,-0.1016 h 14 v 0.3008 h -14 z m -179.1992,0.1992 h 14.1016 v 0.2032 h -14.1016 z m -0.098,0.2032 h 14.1992 v 0.098 h -14.1992 z M 3270.8008,1346.5 H 3285 v 0.5 h -14.1992 z m -0.1016,0.5 H 3285 v 0.1016 h -14.3008 z m -179.0976,-0.3008 h 14.2968 v 0.6016 h -14.2968 z m -0.051,0.6016 h 14.3476 v 0.1992 h -14.3476 z M 3240.8008,1317 h 14.5 v 32.1992 h -14.5 z m 0,32.1992 h 14.3984 v 0.1992 h -14.3984 z m 0.098,0.1992 h 14.3008 V 1350 h -14.3008 z m 0,0.6016 h 14.2032 v 0.1016 h -14.2032 z m 0.1016,0.1016 h 14.1016 v 0.1992 H 3241 Z m 0,0.1992 h 14 v 0.098 h -14 z m 0.1016,0.098 H 3255 v 0.3008 h -13.8984 z m 0.098,0.3008 h 13.6992 V 1351 H 3241.2 Z m 0,0.3008 h 13.6016 v 0.1016 H 3241.2 Z m 0.1016,0.1016 h 13.5 v 0.1992 h -13.5 z m 0,0.1992 H 3254.7 v 0.098 h -13.3984 z m 0.098,0.098 h 13.3008 v 0.1016 h -13.3008 z m 0,0.1016 h 13.2032 v 0.1016 h -13.2032 z m 0.1016,0.1016 h 13.1016 v 0.098 H 3241.5 Z m 0,0.098 h 13 v 0.1016 h -13 z m 0.1016,0.1016 H 3254.5 v 0.098 h -12.8984 z m 0,0.098 h 12.7968 v 0.1 h -12.7968 z m 0.098,0.1016 H 3254.4 v 0.1016 h -12.6992 z m 0.1016,0.1016 h 12.5 v 0.1992 h -12.5 z m 0.098,0.1992 h 12.3008 v 0.1992 h -12.3008 z m 0.1,0.1976 h 12.1016 v 0.1992 H 3242 Z m 0.1016,0.1992 H 3254 v 0.1016 h -11.8984 z m 0.098,0.1016 h 11.6992 v 0.098 h -11.6992 z m 0.1016,0.098 h 11.5 V 1353 h -11.5 z m 0.098,0.1016 H 3253.7 v 0.1016 h -11.3008 z m 0,0.1016 h 11.2032 v 0.098 h -11.2032 z m 0.1016,0.098 h 11.1016 v 0.1016 H 3242.5 Z m 0.1016,0.1016 H 3253.5 v 0.098 h -10.8984 z m 0.098,0.098 h 10.6992 v 0.1016 h -10.6992 z m 0.1016,0.1016 h 10.5 v 0.1016 h -10.5 z m 0.098,0.1016 h 10.3008 v 0.098 H 3242.9 Z m 0.1016,0.098 h 10.1016 v 0.1016 H 3243 Z m 0.1016,0.1016 H 3253 v 0.098 h -9.8984 z m 0.098,0.098 h 9.6992 v 0.1 h -9.6992 z m 0.1016,0.1016 h 9.5 v 0.1016 h -9.5 z m 0.098,0.1016 h 9.2032 v 0.098 h -9.2032 z m 0.2032,0.098 h 8.8984 v 0.1016 h -8.8984 z m 0.098,0.1016 h 8.6992 v 0.098 h -8.6992 z m 0.1016,0.098 h 8.5 v 0.1016 h -8.5 z m 0.098,0.1016 h 8.3008 v 0.1016 h -8.3008 z m 0.2032,0.1016 H 3252 v 0.098 h -7.8984 z m 0.1992,0.098 h 7.5 v 0.1016 h -7.5 z m 0.098,0.1016 h 7.2032 v 0.098 h -7.2032 z m 0.2032,0.098 h 6.7968 V 1355 h -6.7968 z m 0.1992,0.1016 h 6.5 v 0.1016 h -6.5 z m 0.1992,0.1016 h 6.1016 v 0.098 H 3245 Z m 0.1992,0.098 h 5.6992 v 0.1016 h -5.6992 z m 0.3008,0.1016 h 5.1016 v 0.098 H 3245.5 Z m 0.3008,0.098 h 4.5 v 0.1016 h -4.5 z m 0.3008,0.1016 h 3.7968 v 0.1016 h -3.7968 z m 0.3984,0.1016 h 3.1016 v 0.098 H 3246.5 Z m 0.6016,0.098 H 3249 v 0.1016 h -1.8984 z M 3091.5508,1347.5 H 3106 v 20 h -14.4492 z m 0,20 h 14.3476 v 0.1016 h -14.3476 z m 155.9492,0 h 1.1016 v 0.1016 H 3247.5 Z m -0.8008,0.1016 h 2.6016 v 0.098 h -2.6016 z m -0.3984,0.098 h 3.5 v 0.1016 h -3.5 z m -0.3008,0.1016 h 4.1016 v 0.098 H 3246 Z m -0.3008,0.098 h 4.6992 V 1368 h -4.6992 z m -0.3984,0.1016 h 5.3984 v 0.1016 h -5.3984 z m -0.1992,0.1016 H 3251 v 0.098 h -5.8984 z m -153.5,-0.5 h 14.2968 v 0.5976 h -14.2968 z m 153.2968,0.5976 h 6.3008 v 0.1016 h -6.3008 z m -153.2968,0 h 14.1992 v 0.1992 h -14.1992 z m 153.0976,0.1016 h 6.6992 v 0.098 h -6.6992 z m -0.1992,0.098 h 7 v 0.1016 h -7 z m -0.1016,0.1016 h 7.3008 v 0.1016 h -7.3008 z m -152.6992,-0.1016 h 14.1016 v 0.2032 h -14.1016 z m 0,0.2032 h 14 v 0.098 h -14 z m 152.5,0 h 7.6992 v 0.098 h -7.6992 z m -0.1992,0.098 h 8.1016 v 0.1016 H 3244 Z m -0.1016,0.1016 h 8.3008 v 0.098 h -8.3008 z m -152.0976,-0.1016 h 13.8984 v 0.1992 h -13.8984 z m 0,0.1992 h 13.8008 v 0.1 h -13.8008 z m 151.8984,0 h 8.6016 v 0.1 h -8.6016 z m -0.098,0.1016 h 8.8984 v 0.1016 h -8.8984 z m -0.1016,0.1016 h 9.1016 v 0.098 H 3243.5 Z M 3091.8984,1369 h 13.7032 v 0.3008 h -13.7032 z m 151.5,0.1992 h 9.3008 v 0.1016 h -9.3008 z m -0.098,0.1016 h 9.5 v 0.098 h -9.5 z m -0.1992,0.098 H 3253 v 0.1016 h -9.8984 z M 3092,1369.3008 h 13.5 v 0.3008 H 3092 Z m 151,0.1992 h 10.1016 v 0.1016 H 3243 Z m -0.1016,0.1016 h 10.3008 v 0.098 h -10.3008 z m -150.7968,0 h 13.2968 v 0.1992 h -13.2968 z m 150.6992,0.098 h 10.5 v 0.1016 h -10.5 z m -0.1016,0.1016 h 10.6992 v 0.098 h -10.6992 z m -150.5,0 h 13.1016 V 1370 h -13.1016 z m 150.4024,0.098 h 10.7968 V 1370 h -10.7968 z m 0,0.1016 H 3253.5 v 0.1016 h -10.8984 z m -150.3008,0 h 12.8984 v 0.1992 h -12.8984 z m 150.1992,0.1016 h 11.1016 v 0.098 H 3242.5 Z m -0.1016,0.098 h 11.3008 v 0.1016 h -11.3008 z m -150,0 h 12.7032 v 0.1992 h -12.7032 z m 149.9024,0.1016 h 11.5 v 0.098 h -11.5 z M 3092.5,1370.4 h 12.5 v 0.1016 h -12.5 z m 0,0.1016 h 12.3984 v 0.1016 H 3092.5 Z m 149.6992,-0.1016 h 11.6992 v 0.2032 h -11.6992 z m -0.098,0.2032 H 3254 v 0.098 h -11.8984 z m -149.5,0 h 12.2968 v 0.098 h -12.2968 z m 0,0.098 h 12.1992 v 0.1016 h -12.1992 z m 0.098,0.1016 h 12.1016 v 0.098 h -12.1016 z M 3242,1370.6992 h 12.1016 v 0.1992 H 3242 Z m -0.1016,0.1992 h 12.3008 V 1371 h -12.3008 z m -149.0976,0 h 11.8984 V 1371 h -11.8984 z m 0,0.1016 h 11.8008 v 0.1016 h -11.8008 z m 149,0 h 12.3984 v 0.1016 h -12.3984 z m -148.9024,0.1016 h 11.7032 v 0.098 h -11.7032 z m 148.9024,0 h 12.5 v 0.098 h -12.5 z M 3093,1371.1992 h 11.5 v 0.1016 H 3093 Z m 0.1016,0.1016 h 11.2968 v 0.098 h -11.2968 z m 148.5976,-0.1016 h 12.6992 v 0.1992 h -12.6992 z m -148.5,0.1992 h 11.1016 v 0.1016 h -11.1016 z m 148.4024,0 H 3254.5 v 0.2032 h -12.8984 z m -148.3008,0.1016 h 10.8984 v 0.1016 h -10.8984 z m 0,0.1016 h 10.8008 v 0.098 h -10.8008 z m 0.098,0.098 h 10.7032 v 0.1016 h -10.7032 z m 148.1016,-0.098 h 13.1016 v 0.1992 H 3241.5 Z m -148,0.1992 h 10.5 v 0.098 h -10.5 z m 0.1016,0.098 h 10.2968 V 1372 h -10.2968 z m 147.7968,-0.098 h 13.3008 V 1372 h -13.3008 z M 3093.6992,1372 h 10.1016 v 0.1016 h -10.1016 z m 0.1016,0.1016 h 9.8984 v 0.098 h -9.8984 z m 0.098,0.098 h 9.6016 v 0.1016 h -9.6016 z M 3241.3008,1372 h 13.5 v 0.3008 h -13.5 z m -147.1992,0.3008 h 9.2968 v 0.098 h -9.2968 z m 0.098,0.098 h 9.1016 v 0.1016 h -9.1016 z m 0.1016,0.1016 h 8.8984 v 0.1016 h -8.8984 z m 146.8984,-0.1992 h 13.6992 v 0.3008 h -13.6992 z m -146.8008,0.3008 h 8.7032 v 0.098 h -8.7032 z m 146.7032,0 h 13.7968 v 0.098 h -13.7968 z m -146.6016,0.098 h 8.3984 v 0.1016 H 3094.5 Z m 0.1992,0.1016 h 8.1016 v 0.098 h -8.1016 z m 0.1992,0.098 h 7.7032 V 1373 h -7.7032 z m 146.2032,-0.1992 H 3255 V 1373 h -13.8984 z M 3095,1373 h 7.3984 v 0.1016 H 3095 Z m 0.1992,0.1016 h 7.1016 v 0.098 h -7.1016 z m 0.1992,0.098 h 6.7032 v 0.1016 h -6.7032 z M 3241,1373 h 14.1016 v 0.3008 H 3241 Z m -145.3984,0.3008 h 6.2968 v 0.098 h -6.2968 z m 145.2968,0 h 14.2032 v 0.098 h -14.2032 z m -145.0976,0.098 h 5.8984 v 0.1016 h -5.8984 z M 3096,1373.5 h 5.5 v 0.1016 h -5.5 z m 0.3008,0.1016 h 4.8984 v 0.098 h -4.8984 z m 0.3008,0.098 h 4.1992 v 0.1016 h -4.1992 z m 0.3984,0.1016 h 3.5 v 0.098 h -3.5 z m 0.3984,0.098 h 2.7032 V 1374 h -2.7032 z m 0.7032,0.1016 h 1.2968 v 0.1016 h -1.2968 z m 142.7968,-0.6016 h 14.3008 v 0.7032 h -14.3008 z m -0.098,0.7032 h 14.5 v 13.1992 h -14.5 z m 0,13.1992 h 14.3984 v 0.098 h -14.3984 z m 0.098,0.098 h 14.3008 v 0.7032 h -14.3008 z m 0,0.7032 h 14.2032 v 0.098 h -14.2032 z m 0.1016,0.098 h 14.1016 V 1388.5 H 3241 Z m 0.1016,0.3008 H 3255 v 0.3008 h -13.8984 z m 0.098,0.3008 h 13.6992 v 0.3008 h -13.6992 z m -143,0.3984 h 1.1016 v 0.1016 h -1.1016 z m -0.8008,0.1016 H 3100 v 0.098 h -2.6016 z m 143.9024,-0.1992 h 13.5 v 0.2968 h -13.5 z M 3097,1389.3984 h 3.5 v 0.1016 h -3.5 z m 144.3008,0 h 13.3984 v 0.1016 h -13.3984 z m -144.6016,0.1016 h 4.1016 v 0.1016 h -4.1016 z m -0.3008,0.1016 h 4.7032 v 0.098 h -4.7032 z m 145,-0.1016 h 13.3008 v 0.1992 h -13.3008 z M 3096,1389.6992 h 5.3984 v 0.1016 H 3096 Z m -0.1992,0.1016 h 5.8984 v 0.098 h -5.8984 z m 145.6992,-0.1016 h 13.1016 v 0.1992 H 3241.5 Z m -145.8984,0.1992 h 6.2968 V 1390 h -6.2968 z m 146,0 H 3254.5 V 1390 h -12.8984 z M 3095.3984,1390 h 6.7032 v 0.1016 h -6.7032 z m 146.2032,0 h 12.7968 v 0.1016 h -12.7968 z m -146.4024,0.1016 h 7 v 0.098 h -7 z m 146.5,0 h 12.6992 v 0.098 h -12.6992 z m -146.5976,0.098 h 7.2968 v 0.1016 h -7.2968 z m -0.2032,0.1016 h 7.7032 v 0.098 h -7.7032 z m 146.9024,-0.1016 h 12.5 v 0.1992 h -12.5 z m -147.1016,0.1992 h 8.1016 v 0.1016 h -8.1016 z m -0.098,0.1016 h 8.2968 v 0.1016 h -8.2968 z m 147.2968,-0.1016 h 12.3008 v 0.2032 h -12.3008 z m -147.5,0.2032 H 3103 v 0.098 h -8.6016 z m -0.098,0.098 h 8.8984 v 0.1016 H 3094.3 Z m 147.7,-0.098 h 12.1016 v 0.1992 H 3242 Z m -147.8008,0.1992 h 9.1016 v 0.098 h -9.1016 z m 147.9024,0 H 3254 v 0.098 h -11.8984 z m -148,0.098 h 9.2968 V 1391 h -9.2968 z m 148.0976,0 h 11.6992 V 1391 h -11.6992 z M 3094,1391 h 9.5 v 0.1016 h -9.5 z m 148.3008,0 h 11.5 v 0.1016 h -11.5 z m -148.5,0.1016 h 9.8008 v 0.098 h -9.8008 z m 148.5,0 h 11.3984 v 0.098 h -11.3984 z m -148.6016,0.098 h 10.1016 v 0.1016 h -10.1016 z m 148.6992,0 h 11.3008 v 0.1016 h -11.3008 z m -148.7968,0.1016 h 10.2968 v 0.098 h -10.2968 z m 148.8984,0 h 11.1016 v 0.098 H 3242.5 Z m -149,0.098 h 10.5 v 0.1016 h -10.5 z m 149.1016,0 H 3253.5 v 0.1016 h -10.8984 z m 0.098,0.1016 h 10.6992 v 0.1016 h -10.6992 z m -149.3008,0 h 10.7032 v 0.1992 h -10.7032 z m 149.4024,0.1016 h 10.5 v 0.098 h -10.5 z m -149.5,0.098 h 10.8984 v 0.1016 h -10.8984 z m 149.5,0 h 10.3984 v 0.1016 h -10.3984 z m -149.6016,0.1016 h 11.1016 v 0.098 h -11.1016 z m 149.6992,0 h 10.3008 v 0.098 h -10.3008 z m -149.7968,0.098 h 11.2968 v 0.1 h -11.2968 z m 150,0 H 3253 v 0.1 h -9.8984 z M 3093,1392 h 11.5 v 0.1016 H 3093 Z m 150.1992,0 h 9.6992 v 0.1016 h -9.6992 z m 0.1016,0.1016 h 9.5 v 0.098 h -9.5 z m -150.4024,0 H 3104.5 v 0.098 h -11.6016 z m 0,0.098 h 11.7032 v 0.1016 h -11.7032 z m 150.5,0 h 9.3008 v 0.1016 h -9.3008 z m -150.5976,0.1016 h 11.8984 v 0.098 h -11.8984 z m 150.6992,0 h 9 v 0.098 h -9 z m 0.1992,0.098 h 8.6992 v 0.1016 h -8.6992 z m -151,0 h 12.1016 v 0.2032 h -12.1016 z m 151.1016,0.1016 h 8.5 v 0.1016 h -8.5 z m -151.1992,0.1016 h 12.2968 v 0.098 h -12.2968 z m 151.2968,0 h 8.3008 v 0.098 h -8.3008 z m 0.1016,0.098 h 8 v 0.1016 h -8 z m -151.5,0 h 12.3984 v 0.1016 H 3092.5 Z m 0,0.1016 h 12.5 v 0.098 h -12.5 z m 151.6992,0 h 7.6992 v 0.098 h -7.6992 z m 0.1992,0.098 h 7.3008 v 0.1 h -7.3008 z m -152,0 h 12.7032 v 0.2032 h -12.7032 z m 152.2032,0.1 h 6.8984 v 0.1016 h -6.8984 z m 0.1992,0.1016 h 6.5 v 0.098 h -6.5 z m -152.5,0 h 12.8984 v 0.1992 h -12.8984 z m 152.6992,0.098 h 6.1016 v 0.1016 H 3245 Z m 0.1016,0.1016 h 5.7968 v 0.098 h -5.7968 z m -152.9024,0 h 13.1016 v 0.1992 h -13.1016 z m 153.1992,0.098 h 5.2032 v 0.1016 h -5.2032 z m 0.4024,0.1016 h 4.5 v 0.1016 h -4.5 z m -153.6992,0 h 13.2968 v 0.1992 h -13.2968 z m 154,0.1016 H 3250 v 0.098 h -3.8984 z m 0.2968,0.098 h 3.3008 v 0.1016 h -3.3008 z m 0.6016,0.1016 h 2.1016 v 0.098 H 3247 Z m -155,-0.1016 h 13.5 V 1394 H 3092 Z M 3091.8984,1394 H 3105.5 v 0.1016 h -13.6016 z m 0,0.1016 h 13.7032 v 0.1992 h -13.7032 z m -0.098,0.1992 h 13.8008 v 0.098 h -13.8008 z m 0,0.098 h 13.8984 v 0.3008 h -13.8984 z m -0.1016,0.3008 h 14.1016 V 1395 h -14.1016 z m -0.098,0.3008 H 3105.8 v 0.1016 h -14.1992 z m 0,0.1016 h 14.2968 v 0.6992 h -14.2968 z m 29.7968,-78.6016 H 3135.8 v 80.1992 h -14.4024 z m 0.1016,80.1992 H 3135.8 v 0.1016 h -14.3 z m 0,0.1016 h 14.1992 v 0.5 H 3121.5 Z m 0.1016,0.5 h 14 v 0.3008 h -14 z m 0.098,0.3008 H 3135.5 V 1398 h -13.8008 z m 0.1016,0.3984 h 13.5976 v 0.3008 h -13.5976 z m 0.098,0.3008 h 13.4024 v 0.3008 h -13.4024 z m 0.1016,0.3008 h 13.1992 v 0.098 H 3122 Z m 0.1016,0.098 h 13 v 0.1992 h -13 z m 0.098,0.1992 H 3135 v 0.2032 h -12.8008 z m 0.1016,0.2032 h 12.5976 v 0.1992 h -12.5976 z m 0.098,0.1992 h 12.4024 v 0.1992 h -12.4024 z m 0.1016,0.1992 H 3134.7 v 0.1992 h -12.2 z m 0.1016,0.1992 h 12 v 0.1016 h -12 z m 0.098,0.1016 H 3134.5 v 0.098 h -11.8008 z m 0.1016,0.098 h 11.5976 v 0.2032 h -11.5976 z m 0.098,0.2032 h 11.4024 v 0.098 H 3122.9 Z m 0.1016,0.098 h 11.1992 v 0.1016 H 3123 Z m 0.1016,0.1016 h 11 v 0.098 h -11 z m 0.098,0.098 H 3134 v 0.1016 h -10.8008 z m 0.1016,0.1016 h 10.5976 v 0.1992 h -10.5976 z m 0.098,0.1992 h 10.4024 v 0.1016 h -10.4024 z m 0.1016,0.1016 h 10.1992 v 0.098 H 3123.5 Z m 0.1016,0.098 h 10 V 1401 h -10 z m 0.1992,0.1016 h 9.5976 v 0.1016 h -9.5976 z m 0.098,0.1016 h 9.4024 v 0.098 h -9.4024 z m 0.1016,0.098 h 9.1992 v 0.1016 H 3124 Z m 0.1016,0.1016 h 9 v 0.098 h -9 z m 0.1992,0.098 h 8.5976 v 0.1016 h -8.5976 z m 0.098,0.1016 h 8.4024 v 0.1016 h -8.4024 z m 0.1016,0.1016 h 8.1992 v 0.098 H 3124.5 Z m 0.1992,0.098 h 7.8008 v 0.1016 h -7.8008 z m 0.1016,0.1016 h 7.5976 v 0.098 h -7.5976 z m 0.1992,0.098 h 7.1992 V 1402 H 3125 Z m 0.1992,0.1016 H 3132 v 0.1016 h -6.8008 z m 0.1992,0.1016 h 6.4024 v 0.098 h -6.4024 z m 0.2032,0.098 h 6 v 0.1016 h -6 z m 0.1992,0.1016 h 5.5976 v 0.098 h -5.5976 z m 0.3008,0.098 h 5 v 0.1016 h -5 z m 0.2968,0.1016 h 4.4024 v 0.1016 h -4.4024 z m 0.3008,0.1016 h 3.8008 v 0.098 h -3.8008 z m 0.4024,0.098 h 3 v 0.1016 h -3 z m 0.5976,0.1016 h 1.8008 v 0.098 h -1.8008 z M 3247,1408.8984 h 2.1016 V 1409 H 3247 Z m -0.6016,0.1016 h 3.3008 v 0.1016 h -3.3008 z m -0.2968,0.1016 H 3250 v 0.098 h -3.8984 z m -0.3008,0.098 h 4.5 v 0.1016 h -4.5 z m -0.4024,0.1016 h 5.2032 v 0.098 h -5.2032 z m -0.2968,0.098 h 5.7968 v 0.1016 h -5.7968 z M 3245,1409.5 h 6.1016 v 0.1016 H 3245 Z m -0.1992,0.1016 h 6.5 v 0.098 h -6.5 z m -0.1992,0.098 h 6.8984 v 0.1016 h -6.8984 z m -0.2032,0.1016 h 7.3008 v 0.098 h -7.3008 z m -0.1992,0.098 h 7.6992 V 1410 h -7.6992 z M 3244,1410 h 8 v 0.1016 h -8 z m -0.1016,0.1016 h 8.3008 v 0.098 h -8.3008 z m -0.098,0.098 h 8.5 v 0.1016 h -8.5 z m -0.1016,0.1016 h 8.6992 v 0.098 h -8.6992 z m -0.1992,0.098 h 9 v 0.1016 h -9 z m -0.1016,0.1016 h 9.3008 v 0.1016 h -9.3008 z m -0.098,0.1016 h 9.5 v 0.098 h -9.5 z m -0.1016,0.098 h 9.6992 v 0.1016 h -9.6992 z m -0.1992,0.1016 h 10 v 0.098 h -10 z m -0.1016,0.098 h 10.3008 v 0.1 h -10.3008 z m -0.098,0.1016 h 10.3984 v 0.1016 h -10.3984 z m 0,0.1016 h 10.5 v 0.098 h -10.5 z m -0.1016,0.098 h 10.6992 v 0.1016 h -10.6992 z m -0.098,0.1016 h 10.9 v 0.098 h -10.8984 z m -0.1016,0.098 H 3253.6 v 0.099 h -11.1 z m -0.1016,0.1016 h 11.3008 v 0.1016 h -11.3008 z m -0.098,0.1016 h 11.3984 v 0.098 h -11.3984 z m 0,0.098 h 11.5 v 0.1016 h -11.5 z m -0.1016,0.1016 h 11.6992 v 0.098 h -11.6992 z m -0.098,0.098 H 3254 V 1412 h -11.8984 z M 3242,1412 h 12.1016 v 0.1992 H 3242 Z m -0.1016,0.1992 h 12.3008 v 0.1992 h -12.3008 z m -0.098,0.1992 h 12.5 v 0.1016 h -12.5 z m -0.1016,0.1016 h 12.6016 v 0.1016 h -12.6016 z m 0,0.1016 h 12.6992 v 0.098 h -12.6992 z m -0.098,0.098 h 12.7968 v 0.1016 h -12.7968 z m 0,0.1016 H 3254.5 v 0.098 h -12.8984 z m -0.1016,0.098 h 13.1016 v 0.2032 H 3241.5 Z m -0.1016,0.2032 h 13.3008 v 0.1992 h -13.3008 z m -0.098,0.1992 h 13.3984 v 0.098 h -13.3984 z m 0,0.098 h 13.5 v 0.2032 h -13.5 z m -0.1016,0.2032 h 13.6016 v 0.098 h -13.6016 z m 0,0.098 h 13.6992 v 0.1992 h -13.6992 z m -0.098,0.1992 h 13.7968 v 0.1 H 3241.1 Z m 0,0.1016 h 13.9 v 0.3008 h -13.8984 z m -0.1016,0.3008 H 3255.1 v 0.3008 H 3241 Z m -0.1016,0.3008 H 3255.1 v 0.098 h -14.2032 z m 0,0.098 h 14.3008 v 0.6016 h -14.3008 z m -0.098,0.6016 h 14.3984 v 0.1992 h -14.3984 z m 29.8984,-68.1992 h 14.3906 v 69.1992 h -14.3906 z m 0,69.1992 H 3285 v 0.098 h -14.3008 z m 0.1016,0.098 H 3285 v 0.5 h -14.1992 z m 0.098,0.5 h 14 v 0.3008 h -14 z m 0,0.3008 h 13.9024 v 0.1016 h -13.9024 z m 0.1016,0.1016 h 13.8008 v 0.3008 H 3271 Z m -143,0.5 h 1.1992 v 0.098 H 3128 Z M 3271.1,1417.604 h 13.5976 v 0.2968 H 3271.1 Z m -143.8008,0.2968 h 2.5976 V 1418 h -2.5976 z m -0.4024,0.1016 h 3.4024 v 0.1016 h -3.4024 z m -0.3984,0.1016 h 4.1992 v 0.098 H 3126.5 Z m 144.6992,-0.2032 H 3284.6 v 0.3008 h -13.4024 z m -145,0.3008 H 3131 v 0.1016 h -4.8008 z m -0.3008,0.1016 h 5.4024 v 0.098 h -5.4024 z m 145.4024,-0.1016 H 3284.5 v 0.1992 h -13.1992 z m -145.6016,0.1992 h 5.8008 v 0.1016 h -5.8008 z m -0.1976,0.099 h 6.1992 v 0.1016 H 3125.5 Z m 145.8984,-0.1016 h 13 v 0.2032 h -13 z m -146.0976,0.2032 h 6.5976 v 0.098 h -6.5976 z m 146.1992,0 h 12.8008 v 0.098 H 3271.5 Z m -146.3984,0.098 h 7 v 0.1016 h -7 z m 146.3984,0 h 12.6992 v 0.1016 H 3271.5 Z m -146.6016,0.1016 h 7.4024 v 0.098 h -7.4024 z m 146.7032,0 h 12.5976 v 0.098 h -12.5976 z m -146.9024,0.098 H 3132.5 V 1419 h -7.8008 z M 3124.5,1419 h 8.1992 v 0.1016 H 3124.5 Z m 147.1992,-0.1016 h 12.4024 v 0.2032 h -12.4024 z m -147.3008,0.2032 h 8.4024 v 0.098 h -8.4024 z m -0.098,0.098 h 8.5976 v 0.1016 h -8.5976 z m 147.5,-0.098 H 3284 v 0.1992 h -12.1992 z m -147.6016,0.1992 H 3133 v 0.098 h -8.8008 z m 147.6992,0 h 12 v 0.098 h -12 z m -147.7968,0.098 h 9 v 0.1016 h -9 z m 147.7968,0 h 11.9024 v 0.1016 h -11.9024 z m -148,0.1016 h 9.4024 v 0.1016 h -9.4024 z m 148.1016,0 h 11.8008 v 0.1016 H 3272 Z m -148.1992,0.1016 h 9.5976 v 0.098 h -9.5976 z m 148.3008,0 h 11.5976 v 0.098 h -11.5976 z m -148.4024,0.098 h 9.8008 v 0.1016 h -9.8008 z m 148.5,0 h 11.4024 v 0.1016 h -11.4024 z m -148.5976,0.1016 h 10 v 0.098 h -10 z m 148.6992,0 H 3283.5 v 0.098 h -11.1992 z m -148.8008,0.098 h 10.1992 V 1420 H 3123.5 Z m 148.8984,0 h 11 V 1420 h -11 z m -149,0.1016 h 10.4024 v 0.1016 h -10.4024 z m 149,0 h 10.9024 v 0.1016 h -10.9024 z m -149.0976,0.1016 h 10.5976 v 0.098 h -10.5976 z m 149.1992,0 h 10.8008 v 0.098 H 3272.5 Z m -149.3008,0.098 H 3134 v 0.1016 h -10.8008 z m 149.4024,0 h 10.5976 v 0.1016 h -10.5976 z m -149.5,0.1016 h 11 v 0.098 h -11 z m 149.5976,0 h 10.4024 v 0.098 h -10.4024 z m 0.1016,0.098 H 3283 v 0.1016 h -10.1992 z m -149.8008,0 h 11.1992 v 0.2032 H 3123 Z m 149.8984,0.1016 h 10 v 0.1016 h -10 z m -150,0.1016 h 11.4024 v 0.098 h -11.4024 z m 150.1016,0 h 9.8008 v 0.098 H 3273 Z m -150.1992,0.098 h 11.5976 v 0.1016 h -11.5976 z m 150.3008,0 h 9.5976 v 0.1016 h -9.5976 z m -150.4024,0.1016 H 3134.5 v 0.098 h -11.8008 z m 150.6016,0 h 9.1992 v 0.098 h -9.1992 z m 0.098,0.098 h 9 V 1421 h -9 z m -150.7968,0 h 12 v 0.2032 h -12 z M 3273.5,1421 h 8.8008 v 0.1016 H 3273.5 Z m 0.1016,0.1016 h 8.5976 v 0.098 h -8.5976 z m -151.1016,0 h 12.1992 v 0.1992 H 3122.5 Z m 151.1992,0.098 H 3282 v 0.1016 h -8.3008 z m -151.3008,0.1016 h 12.4024 v 0.098 h -12.4024 z m 151.5,0 h 8 v 0.098 h -8 z m 0.2032,0.098 h 7.5976 v 0.1016 h -7.5976 z m -151.8008,0 h 12.5976 v 0.2032 h -12.5976 z m 152,0.1016 h 7.1992 v 0.1016 h -7.1992 z m 0.098,0.1016 h 7 v 0.098 h -7 z m -152.1992,0 H 3135 v 0.1992 h -12.8008 z m 152.4024,0.098 h 6.5976 v 0.1016 h -6.5976 z m 0.1992,0.1016 H 3281 v 0.098 h -6.1992 z m -152.6992,0 h 13 V 1422 h -13 z m 152.8984,0.098 h 5.8008 v 0.1 H 3275 Z m 0.3008,0.1016 h 5.1992 v 0.1016 h -5.1992 z M 3122,1422 h 13.1992 v 0.1992 H 3122 Z m 153.6016,0.1016 h 4.5976 v 0.098 h -4.5976 z m 0.2968,0.098 h 4 v 0.1016 h -4 z m 0.3008,0.1016 h 3.4024 v 0.098 h -3.4024 z m -154.3008,-0.1016 h 13.4024 v 0.3008 h -13.4024 z m 154.8008,0.1992 H 3279 v 0.1016 h -2.3008 z m -154.8984,0.1016 h 13.5976 v 0.3008 h -13.5976 z m -0.1016,0.3008 H 3135.5 v 0.3008 h -13.8008 z m -0.098,0.3008 h 14 v 0.2968 h -14 z m -0.1016,0.2968 h 14.1992 V 1424 H 3121.5 Z m 36.3008,13.7032 h 1.3008 v 0.098 h -1.3008 z m 59.6992,0 h 1.3008 v 0.098 H 3217.5 Z m -60.3984,0.098 h 2.6992 v 0.1016 h -2.6992 z m 59.6992,0 h 2.8008 v 0.1016 h -2.8008 z m -60.1016,0.1016 h 3.5 v 0.098 h -3.5 z m 59.6992,0 h 3.5 v 0.098 h -3.5 z m -60,0.098 h 4.2032 v 0.1016 h -4.2032 z m 59.7032,0 h 4.1992 v 0.1016 h -4.1992 z M 3156,1437.5 h 4.8984 v 0.1016 H 3156 Z m 59.8008,0 h 4.8008 v 0.1016 h -4.8008 z m -60.1016,0.1016 h 5.5 v 0.098 h -5.5 z m 59.6992,0 h 5.5 v 0.098 h -5.5 z m -59.8984,0.098 h 5.8984 v 0.1016 H 3155.5 Z m 59.6992,0 h 5.9024 v 0.1016 h -5.9024 z m 61.8008,0 h 1.8008 v 0.1016 H 3277 Z m -121.6992,0.1016 h 6.3008 v 0.098 h -6.3008 z m 59.6992,0 h 6.3008 v 0.098 H 3215 Z m 61.3984,0 h 3 v 0.098 h -3 z m -121.2968,0.098 h 6.6992 V 1438 h -6.6992 z m 59.6992,0 H 3221.5 V 1438 h -6.6992 z m 61.1992,0 h 3.8008 V 1438 H 3276 Z M 3121.3984,1424 h 14.4024 v 14.1016 h -14.4024 z m 33.5,14 H 3162 v 0.1016 h -7.1016 z m 59.8008,0 h 7 v 0.1016 h -7 z m 61,0 h 4.4024 v 0.1016 h -4.4024 z m -120.8984,0.1016 h 7.3984 v 0.098 h -7.3984 z m 59.6992,0 h 7.3984 v 0.098 H 3214.5 Z m 60.8984,0 h 5 v 0.098 h -5 z m -120.7968,0.098 h 7.6992 v 0.1016 h -7.6992 z m 59.6992,0 h 7.8008 v 0.1016 h -7.8008 z m 60.8008,0 h 5.5976 v 0.1016 h -5.5976 z m -120.7032,0.1016 h 8.1016 v 0.098 h -8.1016 z m 59.7032,0 h 8.1992 v 0.098 h -8.1992 z m 60.7968,0 h 6 v 0.098 h -6 z m -120.5976,0.098 h 8.3984 v 0.1016 h -8.3984 z m 59.6992,0 h 8.3984 V 1438.5 H 3214 Z m 60.6992,0 h 6.4024 v 0.1016 h -6.4024 z M 3121.5,1438.1016 h 14.1992 v 0.5 H 3121.5 Z m 32.6016,0.3984 h 8.6992 v 0.1016 h -8.6992 z m 59.7968,0 h 8.6016 v 0.1016 h -8.6016 z m 60.6016,0 h 6.8008 v 0.1016 H 3274.5 Z m -120.5,0.1016 h 8.8984 v 0.098 H 3154 Z m 59.6992,0 h 8.9024 v 0.098 h -8.9024 z m 60.6016,0 h 7.1992 v 0.098 h -7.1992 z m -120.4024,0.098 H 3163 v 0.1016 h -9.1016 z m 59.7032,0 h 9.0976 v 0.1016 h -9.0976 z m 60.5,0 h 7.5976 v 0.1016 h -7.5976 z m -120.3008,0.1016 h 9.3008 v 0.098 h -9.3008 z m 59.6992,0 h 9.3984 v 0.098 H 3213.5 Z m 60.5,0 h 7.8008 v 0.098 H 3274 Z m -152.3984,-0.1992 h 14 V 1439 h -14 z m 32.0976,0.2968 h 9.6016 V 1439 h -9.6016 z m 59.6992,0 H 3223 V 1439 h -9.6016 z m 60.4024,0 H 3282 V 1439 h -8.1992 z M 3153.5,1439 h 9.8984 v 0.1016 H 3153.5 Z m 59.8008,0 h 9.8008 v 0.1016 h -9.8008 z m 60.3984,0 h 8.4024 v 0.1016 h -8.4024 z m -120.3008,0.1016 H 3163.5 v 0.098 h -10.1016 z m 59.7032,0 h 10.0976 v 0.098 h -10.0976 z m 60.3984,0 h 8.8008 v 0.098 H 3273.5 Z M 3121.6992,1439 H 3135.5 v 0.3008 h -13.8008 z m 31.6016,0.1992 h 10.3008 v 0.1016 h -10.3008 z m 59.6992,0 h 10.3008 v 0.1016 H 3213 Z m 60.3984,0 h 9 v 0.1016 h -9 z m -120.1992,0.1016 h 10.5 v 0.098 h -10.5 z m 120.1016,0 h 9.1992 v 0.098 h -9.1992 z m -60.4024,0 h 10.5 v 0.098 h -10.5 z m 0,0.098 H 3223.5 v 0.1016 h -10.6016 z m 60.3008,0 h 9.4024 v 0.1016 h -9.4024 z m -120.0976,0 h 10.6992 v 0.1016 h -10.6992 z m -31.3008,-0.098 h 13.5976 v 0.3008 h -13.5976 z m 31.3008,0.1992 h 10.7968 v 0.1016 h -10.7968 z m 59.6992,0 h 10.8008 v 0.1016 h -10.8008 z m 60.3008,0 h 9.5976 v 0.1016 h -9.5976 z M 3153,1439.6016 h 10.8984 v 0.098 H 3153 Z m 59.6992,0 h 11 v 0.098 h -11 z m 60.1992,0 h 10 v 0.098 h -10 z m -120,0.098 H 3164 v 0.1016 h -11.1016 z m 59.7032,0 h 11.0976 v 0.1016 h -11.0976 z m 60.1992,0 H 3283 v 0.1016 h -10.1992 z m -150.9024,-0.098 h 13.4024 v 0.2968 h -13.4024 z m 30.9024,0.1992 h 11.3008 v 0.098 h -11.3008 z m 119.8984,0 h 10.4024 v 0.098 h -10.4024 z m -60.1992,0 h 11.3008 v 0.098 H 3212.5 Z m -59.8008,0.098 h 11.5 V 1440 h -11.5 z m 59.8008,0 h 11.3984 V 1440 H 3212.5 Z m -90.5,0 h 13.1992 v 0.2032 H 3122 Z M 3212.3984,1440 H 3224 v 0.1016 h -11.6016 z m 60.2032,-0.1016 h 10.5976 v 0.2032 h -10.5976 z m -120,0.1016 h 11.6992 v 0.1016 h -11.6992 z m 0,0.1016 h 11.7968 v 0.098 h -11.7968 z m 59.6992,0 h 11.8008 v 0.098 h -11.8008 z m 60.1992,0 h 10.8008 v 0.098 H 3272.5 Z m -150.3984,0 h 13 v 0.1992 h -13 z m 30.3984,0.098 h 11.8984 v 0.1016 H 3152.5 Z m 59.6992,0 h 12 v 0.1016 h -12 z m 60.1992,0 h 11 v 0.1016 h -11 z m -0.098,0.1016 H 3283.5 v 0.098 h -11.1992 z m -119.9024,0 h 12.102 v 0.098 h -12.1016 z m 59.7032,0 h 12.0976 v 0.098 h -12.0976 z m -89.9024,0 H 3135 v 0.1992 h -12.8008 z m 30.1992,0.098 h 12.2032 v 0.1016 h -12.2032 z m 59.7032,0 h 12.1992 v 0.1016 h -12.1992 z m 60.0976,0 h 11.4024 v 0.1016 h -11.4024 z m -149.8984,0.1016 h 12.5976 v 0.1016 h -12.5976 z m 30,0 h 12.3008 v 0.1016 h -12.3008 z m 59.6992,0 h 12.3008 v 0.1016 H 3212 Z m -59.6992,0.1016 h 12.3984 v 0.098 h -12.3984 z m 59.6992,0 h 12.3984 v 0.098 H 3212 Z m 60.1016,-0.1016 h 11.5976 v 0.1992 h -11.5976 z m -149.7032,0.1016 h 12.4024 v 0.1992 h -12.4024 z m 29.8008,0.098 h 12.5 v 0.1016 h -12.5 z m 119.8008,0 h 11.8008 v 0.1016 H 3272 Z m -60.1016,0 h 12.5 v 0.1016 h -12.5 z m 0,0.1016 h 12.602 v 0.098 h -12.6016 z m 60,0 h 12 v 0.098 h -12 z m -149.3984,0 h 12.1992 V 1441 H 3122.5 Z m 29.6016,0 h 12.6992 V 1441 h -12.6992 z m 59.6992,0.098 H 3224.5 v 0.1 h -12.6992 z m 0,0.1016 h 12.8008 v 0.1016 h -12.8008 z m 60,-0.1016 H 3284 v 0.2032 h -12.1992 z m -149.1988,0.1 h 12 v 0.1992 h -12 z m 29.3984,0 h 12.8984 v 0.1992 H 3152 Z m -29.3008,0.1992 H 3134.5 v 0.1016 h -11.8008 z m 89,-0.098 h 13 v 0.1992 h -13 z m 60,0 h 12.4024 v 0.1992 h -12.4024 z m -148.8984,0.1992 h 11.5976 v 0.098 h -11.5976 z m 29.0976,-0.1016 H 3165 v 0.1992 h -13.1016 z m 59.7032,0.1016 h 13.1992 v 0.098 h -13.1992 z m -88.7032,0.098 h 11.4024 v 0.1016 h -11.4024 z m 148.7032,-0.098 h 12.5976 v 0.1992 h -12.5976 z m -60.1016,0.098 h 13.3008 V 1441.5 H 3211.5 Z M 3123,1441.5 h 11.1992 v 0.1016 H 3123 Z m 28.8008,-0.1016 h 13.3008 v 0.2032 h -13.3008 z M 3211.5,1441.5 h 13.3984 v 0.1992 H 3211.5 Z m 60,0 h 12.8008 v 0.1992 H 3271.5 Z m -148.3984,0.1016 h 11 v 0.1992 h -11 z m 88.2968,0.098 h 13.5 v 0.1016 h -13.5 z m -88.1992,0.1016 H 3134 v 0.098 h -10.8008 z m 28.5,-0.1992 h 13.5 v 0.2968 h -13.5 z m 119.6992,0.098 h 13 v 0.1992 h -13 z m -148.0976,0.1992 h 10.5976 V 1442 h -10.5976 z m 88.0976,-0.098 H 3225 V 1442 h -13.6016 z m 59.9024,0.098 H 3284.5 V 1442 h -13.1992 z M 3123.3984,1442 h 10.4024 v 0.1016 h -10.4024 z m 87.9024,0 H 3225 v 0.1016 h -13.6992 z m -87.8008,0.1016 h 10.1992 v 0.098 H 3123.5 Z m 28.1016,-0.2032 h 13.6992 v 0.3008 h -13.6992 z m -28,0.3008 h 10 v 0.1016 h -10 z m 28,0 h 13.7968 v 0.1016 h -13.7968 z M 3271.1992,1442 h 13.4024 v 0.3008 h -13.4024 z m -147.5,0.3008 h 9.8008 v 0.098 h -9.8008 z m 87.6016,-0.1992 h 13.8008 v 0.2968 h -13.8008 z m -87.5,0.2968 h 9.5976 v 0.1016 h -9.5976 z m 27.6992,-0.098 h 13.8984 V 1442.5 H 3151.5 Z m 59.6992,0.098 h 13.9024 v 0.1016 h -13.9024 z M 3124,1442.5 h 9.1992 v 0.1016 H 3124 Z m 27.5,0 h 14 v 0.1016 h -14 z m 119.6016,-0.1992 h 13.5976 v 0.3008 h -13.5976 z m -147,0.3008 h 9 v 0.098 h -9 z m 87.0976,-0.1016 h 14 v 0.1992 h -14 z m -87,0.1992 H 3133 v 0.1016 h -8.8008 z m 86.9024,0 h 14.0976 v 0.1016 h -14.0976 z m -86.8008,0.1016 h 8.5976 v 0.098 h -8.5976 z m 27.0976,-0.1992 H 3165.5 v 0.2968 h -14.1016 z m -27,0.2968 h 8.4024 V 1443 h -8.4024 z m 27,0 h 14.2032 V 1443 h -14.2032 z M 3271,1442.6016 h 13.8008 V 1443 H 3271 Z M 3124.6016,1443 h 8 v 0.1016 h -8 z m 0.1992,0.1016 h 7.5976 v 0.098 h -7.5976 z m 86.3008,-0.3008 h 14.1992 v 0.3984 h -14.1992 z M 3125,1443.1992 h 7.1992 v 0.1016 H 3125 Z M 3270.8984,1443 h 14 v 0.3008 h -14 z m -145.7968,0.3008 h 7 v 0.098 h -7 z M 3211,1443.1992 h 14.3008 v 0.1992 H 3211 Z m -85.6992,0.1992 h 6.5976 v 0.1016 h -6.5976 z m 0.1992,0.1016 h 6.1992 v 0.1016 H 3125.5 Z m 25.8008,-0.5 h 14.3008 v 0.6016 h -14.3008 z m -25.6016,0.6016 h 5.8008 v 0.098 h -5.8008 z m 25.6016,0 h 14.3984 v 0.098 h -14.3984 z m -25.3008,0.098 h 5.1992 v 0.1016 H 3126 Z m 0.3008,0.1016 h 4.5976 v 0.098 h -4.5976 z m 144.5,-0.5 H 3285 v 0.5976 h -14.1992 z m -144.1992,0.5976 h 4 V 1444 h -4 z m 0.2968,0.1016 h 3.4024 v 0.1016 h -3.4024 z m 0.5,0.1016 h 2.4024 v 0.098 h -2.4024 z m 60.4024,9.1992 h 1.0976 v 0.098 h -1.0976 z m -0.8008,0.098 h 2.6016 V 1453.5 H 3187 Z m -0.3984,0.1016 h 3.5 v 0.1016 h -3.5 z m -0.3008,0.1016 h 4.0976 v 0.098 h -4.0976 z m -0.4024,0.098 h 4.8008 v 0.1016 h -4.8008 z m -0.2968,0.1016 H 3191 v 0.098 h -5.3984 z m -0.2032,0.098 h 5.9024 v 0.1 h -5.9024 z m -0.1992,0.1016 h 6.3008 v 0.1016 h -6.3008 z m -0.1992,0.1016 h 6.6016 v 0.098 H 3185 Z m -0.1992,0.098 h 7 v 0.1016 h -7 z m -0.1992,0.1016 H 3192 v 0.098 h -7.3984 z m -0.1016,0.098 h 7.6992 v 0.099 H 3184.5 Z m -0.1992,0.1016 h 8.0976 v 0.1016 h -8.0976 z m -0.1992,0.1016 h 8.3984 v 0.098 h -8.3984 z m -0.1016,0.098 h 8.6016 v 0.1016 H 3184 Z m -0.1016,0.1016 h 8.8008 v 0.098 h -8.8008 z m -0.098,0.098 h 9.0976 V 1455 h -9.0976 z m -0.1012,0.098 H 3193 v 0.1016 h -9.3008 z m -0.1992,0.1016 h 9.6016 v 0.098 H 3183.5 Z m -0.1016,0.098 h 9.8008 v 0.1016 h -9.8008 z m -0.098,0.1016 h 10 v 0.098 h -10 z m -0.1016,0.098 H 3193.5 v 0.1016 h -10.3008 z m -0.098,0.1016 H 3193.5 v 0.1016 h -10.3984 z m -0.1016,0.1016 h 10.6016 v 0.098 H 3183 Z m -0.1016,0.098 h 10.8008 v 0.1016 h -10.8008 z m -0.098,0.1016 h 11 v 0.098 h -11 z m 0,0.098 h 11.0976 v 0.1 h -11.0976 z m -55.4012,0.1 h 2.4024 v 0.1016 h -2.4024 z m 55.3008,0 H 3194 v 0.1016 h -11.3008 z m -55.8008,0.1016 h 3.4024 v 0.098 h -3.4024 z m 55.7032,0 H 3194 v 0.098 h -11.3984 z m -56,0.098 h 4 v 0.1016 h -4 z m 55.8984,0 h 11.6016 v 0.1016 H 3182.5 Z m -56.1992,0.1016 h 4.5976 v 0.098 h -4.5976 z m 56.0976,0 h 11.8008 v 0.098 h -11.8008 z m -56.3984,0.098 h 5.1992 V 1456.5 H 3126 Z m 56.3984,0 h 11.9024 v 0.1016 h -11.9024 z m -56.6992,0.1016 h 5.8008 v 0.1016 h -5.8008 z m 56.6016,0 h 12.0976 v 0.1016 h -12.0976 z m -56.8008,0.1016 h 6.1992 v 0.098 H 3125.5 Z m 56.6992,0 h 12.1992 v 0.098 h -12.1992 z m -56.8984,0.098 h 6.5976 v 0.1016 h -6.5976 z m 56.8984,0 H 3194.5 v 0.1016 h -12.3008 z m -57.0976,0.1016 h 7 v 0.098 h -7 z m 57,0 H 3194.5 v 0.098 h -12.3984 z M 3125,1456.9 h 7.1992 v 0.1 H 3125 Z m 57.1016,0 h 12.5 v 0.1 h -12.5 z m -57.3008,0.1 h 7.5976 v 0.1016 h -7.5976 z m 57.1992,0 h 12.6016 v 0.1016 H 3182 Z m -57.3984,0.1016 h 8 v 0.098 h -8 z m 57.3984,0 h 12.6992 v 0.098 H 3182 Z m -57.6016,0.098 h 8.4024 v 0.1016 h -8.4024 z m 57.5,0 h 12.8008 v 0.1016 h -12.8008 z m -57.5976,0.1016 h 8.5976 v 0.098 h -8.5976 z m -0.1016,0.098 H 3133 v 0.1016 h -8.8008 z m 57.6016,-0.098 h 13 v 0.1992 h -13 z m -57.6992,0.1992 h 9 v 0.1016 h -9 z M 3124,1457.602 h 9.1992 v 0.098 H 3124 Z m 57.6992,-0.1016 h 13.1992 v 0.1992 h -13.1992 z m -57.8984,0.1992 h 9.5976 v 0.1016 h -9.5976 z m -0.1016,0.1016 h 9.8008 v 0.098 h -9.8008 z m 57.9024,-0.1016 H 3195 v 0.1992 h -13.3984 z m -58,0.1992 h 10 V 1458 h -10 z m 58,0 h 13.5 V 1458 h -13.5 z M 3123.5,1458 h 10.1992 v 0.1016 H 3123.5 Z m -0.1016,0.1016 h 10.4024 v 0.098 h -10.4024 z m -0.098,0.098 h 10.5976 v 0.1016 h -10.5976 z M 3181.5,1458 h 13.6016 v 0.3008 H 3181.5 Z m -58.3008,0.3008 H 3134 v 0.098 h -10.8008 z m 58.3008,0 h 13.6992 v 0.098 H 3181.5 Z m -58.3984,0.098 h 11 v 0.2032 h -11 z m 58.2968,0 h 13.8008 v 0.2032 h -13.8008 z M 3123,1458.6016 h 11.1992 v 0.098 H 3123 Z m 58.3984,0 h 13.9024 v 0.098 h -13.9024 z m -58.5,0.098 h 11.4024 v 0.1016 h -11.4024 z m -0.098,0.1016 h 11.5976 v 0.098 h -11.5976 z m 58.5,-0.1016 h 14 v 0.1992 h -14 z m -58.6016,0.1992 H 3134.5 V 1459 h -11.8008 z m 58.6016,0 h 14.0976 V 1459 h -14.0976 z M 3122.6016,1459 h 12 v 0.1992 h -12 z m -0.1016,0.1992 h 12.1992 v 0.1992 H 3122.5 Z M 3181.1992,1459 h 14.1992 v 0.3984 h -14.1992 z m -58.8008,0.3984 h 12.4024 v 0.2032 h -12.4024 z m 58.8008,0 H 3195.5 v 0.2032 h -14.3008 z m -58.8984,0.2032 h 12.5976 v 0.098 h -12.5976 z m -0.1016,0.098 H 3135 v 0.1992 h -12.8008 z m -0.098,0.1992 h 13 v 0.2032 h -13 z m -0.1016,0.2032 h 13.1992 v 0.1992 H 3122 Z m -0.1016,0.1992 h 13.4024 v 0.3008 h -13.4024 z m -0.098,0.3008 h 13.5976 v 0.2968 H 3121.8 Z m -0.1016,0.2968 H 3135.5 v 0.3008 h -13.8008 z m -0.098,0.3008 h 14 v 0.4024 h -14 z m -0.1016,0.4024 h 14.1992 v 0.5 H 3121.5 Z m -29.9492,-65.8008 H 3106 v 68.5 h -14.4492 z m 0,68.5 h 14.3476 v 0.098 h -14.3476 z m 179.1484,-20.4024 h 14.3906 v 20.8008 h -14.3906 z m -179.0976,20.5 h 14.2968 V 1465 h -14.2968 z m 0,0.6016 h 14.1992 v 0.1992 h -14.1992 z m 179.1992,-0.3008 H 3285 v 0.6016 h -14.1992 z m -179.1016,0.5 h 14.1016 v 0.1992 h -14.1016 z m 0,0.1992 h 14 v 0.1016 h -14 z m 179.1992,-0.098 h 14 v 0.3008 h -14 z m -179.0976,0.1992 h 13.8984 v 0.1992 h -13.8984 z m 0,0.1992 h 13.8008 v 0.1016 h -13.8008 z M 3271,1465.6016 h 13.8008 v 0.2968 H 3271 Z m -179.1016,0.1992 h 13.7032 v 0.3008 h -13.7032 z m 179.2032,0.098 h 13.5976 v 0.4024 h -13.5976 z M 3092,1466.1016 h 13.5 v 0.2968 H 3092 Z m 179.1992,0.1992 h 13.4024 v 0.1992 h -13.4024 z m -179.0976,0.098 h 13.2968 v 0.2032 h -13.2968 z m 0,0.2032 h 13.1992 v 0.098 h -13.1992 z m 179.1992,-0.102 H 3284.5 v 0.1992 h -13.1992 z m -179.1016,0.1992 h 13.1016 v 0.1016 h -13.1016 z m 179.1992,0 h 13 v 0.1992 h -13 z m -179.0976,0.1016 h 12.8984 V 1467 h -12.8984 z M 3211,1443.3984 h 14.3984 V 1467 H 3211 Z m 60.5,23.5 h 12.8008 v 0.2032 H 3271.5 Z M 3092.3984,1467 h 12.7032 v 0.1992 h -12.7032 z M 3211,1467 h 14.3008 v 0.1992 H 3211 Z m 60.6016,0.1016 h 12.5976 v 0.1992 h -12.5976 z m -179.1016,0.098 h 12.5 v 0.1992 h -12.5 z m 179.1992,0.1016 h 12.4024 v 0.1992 h -12.4024 z m -179.0976,0.098 h 12.2968 v 0.1016 h -12.2968 z m 0,0.1016 h 12.1992 v 0.1016 h -12.1992 z m 179.1992,0 H 3284 v 0.1016 h -12.1992 z m -60.6992,-0.3008 h 14.1992 v 0.4024 h -14.1992 z m -118.4024,0.4024 h 12.1016 v 0.098 h -12.1016 z m 118.4024,0 h 14.0976 v 0.098 h -14.0976 z m 60.7968,0 h 12 v 0.1992 h -12 z m -179.0976,0.098 h 11.8984 v 0.1016 h -11.8984 z m 0,0.1016 h 11.8008 v 0.098 h -11.8008 z m 179.1992,0 h 11.8008 v 0.098 H 3272 Z m -60.8008,-0.1016 h 14 v 0.1992 h -14 z m -118.3008,0.1992 h 11.7032 V 1468 h -11.7032 z m 118.3008,0 h 13.9024 V 1468 h -13.9024 z m 60.9024,0 h 11.5976 V 1468 h -11.5976 z M 3093,1468 h 11.5 v 0.1016 H 3093 Z m 0.1016,0.1016 h 11.2968 v 0.098 h -11.2968 z M 3272.1992,1468 h 11.4024 v 0.1992 h -11.4024 z m -179,0.1992 h 11.1016 v 0.1016 h -11.1016 z m 179.1016,0 H 3283.5 v 0.1016 h -11.1992 z m -61,-0.1992 h 13.8008 v 0.3008 h -13.8008 z m 0,0.3008 H 3225 v 0.098 h -13.6992 z m 61.0976,0 h 11 v 0.098 h -11 z m -179.0976,0 h 10.8984 v 0.098 h -10.8984 z m 0,0.098 h 10.8008 v 0.1016 h -10.8008 z m 179.1992,0 h 10.8008 V 1468.5 H 3272.5 Z m -179.1016,0.1016 h 10.7032 v 0.1016 h -10.7032 z m 179.2032,0 h 10.5976 v 0.1016 h -10.5976 z m -61.2032,-0.1016 H 3225 v 0.2032 h -13.6016 z M 3093.5,1468.602 h 10.5 v 0.098 h -10.5 z m 117.8984,0 h 13.5 v 0.098 h -13.5 z m -117.7968,0.098 h 10.2968 v 0.1016 h -10.2968 z m 179.0976,-0.098 h 10.4024 v 0.1992 h -10.4024 z m -179,0.1992 h 10.1016 v 0.098 h -10.1016 z m 179.1016,0 H 3283 v 0.098 h -10.1992 z m -61.3008,-0.1016 h 13.3984 v 0.1992 H 3211.5 Z m -117.6992,0.1992 h 9.8984 V 1469 h -9.8984 z m 117.6992,0 h 13.3008 V 1469 H 3211.5 Z m 61.5,0 h 9.8008 V 1469 H 3273 Z M 3093.8984,1469 h 9.7032 v 0.1016 h -9.7032 z m 117.7032,0 h 13.1992 v 0.1016 h -13.1992 z m 61.5,0 h 9.5976 v 0.1016 h -9.5976 z m -179,0.1016 h 9.2968 v 0.098 h -9.2968 z m 179.0976,0 h 9.4024 v 0.098 h -9.4024 z m -179,0.098 h 9.1016 v 0.1016 h -9.1016 z m 117.5,-0.098 h 13 v 0.1992 h -13 z m 61.6016,0.098 h 9.1992 v 0.1016 h -9.1992 z m -179,0.1016 h 8.8984 v 0.098 h -8.8984 z m 179.1992,0 h 8.8008 v 0.098 H 3273.5 Z m -179.1016,0.098 h 8.7032 v 0.1016 h -8.7032 z m 117.4024,-0.098 h 12.8008 v 0.1992 h -12.8008 z m 61.8008,0.098 h 8.5976 v 0.1016 h -8.5976 z M 3094.5,1469.5 h 8.3984 v 0.1016 H 3094.5 Z m 179.1992,0 h 8.4024 v 0.1016 h -8.4024 z m -61.8008,0 H 3224.5 v 0.1016 h -12.6016 z m -117.1992,0.1016 h 8.1016 v 0.098 h -8.1016 z m 117.1992,0 h 12.5 v 0.098 h -12.5 z m 61.9024,0 H 3282 v 0.098 h -8.1992 z m -179,0.098 h 7.8008 v 0.1016 h -7.8008 z m 179.1992,0 h 7.8008 v 0.1016 H 3274 Z m -62,0 h 12.3984 v 0.1016 H 3212 Z m -117,0.1016 h 7.5 v 0.098 h -7.5 z m 117,0 h 12.3008 v 0.098 H 3212 Z m 62.1992,0 h 7.4024 v 0.098 h -7.4024 z m -179,0.098 h 7.1016 V 1470 h -7.1016 z m 179.1992,0 h 7 V 1470 h -7 z m -62.2968,0 h 12.1992 V 1470 h -12.1992 z M 3095.3984,1470 h 6.7032 v 0.1016 h -6.7032 z m 116.7032,0 h 12.0976 v 0.1016 h -12.0976 z m 62.3984,0 h 6.8008 v 0.1016 H 3274.5 Z m -178.8984,0.1016 h 6.2968 v 0.098 h -6.2968 z m 116.5976,0 h 12 v 0.098 h -12 z m 62.5,0 h 6.4024 v 0.098 h -6.4024 z m -178.8984,0.098 h 5.8984 v 0.1016 h -5.8984 z m 116.5,0 h 11.8008 v 0.1016 h -11.8008 z m 62.5976,0 h 6 v 0.1016 h -6 z M 3096,1470.3008 h 5.5 v 0.098 h -5.5 z m 179.1016,0 h 5.5976 v 0.098 h -5.5976 z m -62.7032,0 H 3224 v 0.098 h -11.6016 z m -116.0976,0.098 h 4.8984 v 0.1016 h -4.8984 z m 116.0976,0 h 11.5 v 0.1016 h -11.5 z m 63.1016,0 h 4.8008 V 1470.5 H 3275.5 Z m -178.8984,0.1016 h 4.2968 v 0.1016 h -4.2968 z m 115.8984,0 h 11.3008 v 0.1016 H 3212.5 Z m 63.3008,0 H 3280 v 0.1016 h -4.1992 z m -178.9024,0.1016 h 3.6016 v 0.098 h -3.6016 z m 115.7032,0 h 11.1992 v 0.098 h -11.1992 z m 63.5,0 h 3.5976 v 0.098 h -3.5976 z m -178.8008,0.098 h 2.8984 v 0.1016 h -2.8984 z m 115.3984,0 h 11 v 0.1016 h -11 z m 63.6992,0 h 3 v 0.1016 h -3 z M 3098,1470.8008 h 1.3984 v 0.098 H 3098 Z m 114.8008,0 h 10.8008 v 0.098 h -10.8008 z m 64.3984,0 h 1.4024 v 0.098 h -1.4024 z m -64.3008,0.098 H 3223.5 V 1471 h -10.6016 z m 0,0.1016 h 10.5 v 0.1016 h -10.5 z m 0.1016,0.1016 h 10.3008 v 0.098 H 3213 Z m 0.1016,0.098 h 10.0976 v 0.1016 h -10.0976 z m 0.1992,0.1016 h 9.8008 v 0.098 h -9.8008 z m 0.098,0.098 H 3223 v 0.1016 h -9.6016 z m 0.1016,0.1016 h 9.3984 v 0.1016 H 3213.5 Z m 0.1016,0.1016 h 9.0976 v 0.098 h -9.0976 z m 0.098,0.098 h 8.9024 v 0.1016 H 3213.7 Z m 0.1992,0.1016 h 8.6016 v 0.098 h -8.6016 z m 0.1016,0.098 h 8.3984 v 0.1 H 3214 Z m 0.1016,0.1016 h 8.1992 v 0.1016 h -8.1992 z m 0.1992,0.1016 h 7.8008 v 0.098 h -7.8008 z m 0.1992,0.098 h 7.3984 v 0.1016 H 3214.5 Z m 0.1016,0.1016 h 7.0976 v 0.098 h -7.0976 z m 0.1992,0.098 h 6.6992 v 0.1016 h -6.6992 z M 3215,1472.5 h 6.3008 v 0.1016 H 3215 Z m 0.1992,0.1016 h 6 v 0.098 h -6 z m 0.1992,0.098 h 5.5 v 0.1016 h -5.5 z m 0.3008,0.1016 h 4.9024 v 0.098 h -4.9024 z m 0.4024,0.098 h 4.1992 V 1473 h -4.1992 z m 0.2968,0.1016 H 3220 v 0.1016 h -3.6016 z m 0.3008,0.1016 h 2.9024 v 0.098 h -2.9024 z m 0.8008,0.098 h 1.3984 v 0.1016 H 3217.5 Z M 3217.3984,1485 H 3219 v 0.1016 h -1.6016 z m -0.6992,0.1016 h 3 v 0.098 h -3 z m -0.3984,0.098 H 3220 v 0.1016 h -3.6992 z m -0.3008,0.1016 h 4.3008 v 0.098 H 3216 Z m -0.3008,0.098 h 5 v 0.1016 h -5 z m -0.3008,0.1016 H 3221 v 0.1016 h -5.6016 z m -0.1992,0.1016 h 6 v 0.098 h -6 z m -0.1992,0.098 h 6.3984 v 0.1016 H 3215 Z m -0.1992,0.1016 h 6.8008 v 0.098 h -6.8008 z m -0.1992,0.098 h 7.0976 v 0.1 h -7.0976 z m -0.2032,0.1016 h 7.5 v 0.1016 h -7.5 z m -0.098,0.1016 h 7.8008 v 0.098 h -7.8008 z m -0.1992,0.098 h 8.1992 v 0.1016 h -8.1992 z m -0.1016,0.1016 h 8.3984 v 0.098 H 3214 Z m -0.1992,0.098 h 8.6992 v 0.1016 h -8.6992 z m -0.1016,0.1016 h 8.9024 v 0.1016 h -8.9024 z m -0.098,0.1016 h 9.1992 v 0.098 h -9.1992 z m -0.1016,0.098 h 9.3984 v 0.1016 H 3213.5 Z m -0.1016,0.1016 H 3223 v 0.098 h -9.6016 z m -0.1992,0.098 h 9.9024 V 1487 h -9.9024 z m -0.098,0.1016 h 10.1992 v 0.1016 h -10.1992 z m -0.1016,0.1016 h 10.3984 v 0.098 H 3213 Z m -0.1016,0.098 h 10.5 v 0.1016 h -10.5 z m -0.098,0.1016 H 3223.5 v 0.098 h -10.6992 z m 0,0.098 H 3223.6 v 0.1016 h -10.8008 z m -0.1016,0.1016 h 11 v 0.1016 h -11 z m -0.098,0.1016 h 11.1992 v 0.098 h -11.1992 z m -0.1016,0.098 h 11.3984 v 0.1016 H 3212.5 Z m -0.1016,0.1016 h 11.5 v 0.098 h -11.5 z m 0,0.098 H 3224 V 1488 h -11.6016 z m -0.098,0.1016 h 11.8008 v 0.1016 h -11.8008 z m -0.1016,0.1016 h 12 v 0.098 h -12 z m -0.098,0.098 h 12.0976 v 0.1016 h -12.0976 z m 0,0.1016 h 12.1992 v 0.098 h -12.1992 z m -0.1016,0.098 h 12.3008 v 0.096 H 3212 Z m 0,0.1016 h 12.3984 v 0.1016 H 3212 Z m -0.1016,0.1016 H 3224.5 v 0.1992 h -12.6016 z m -0.098,0.1992 h 12.8008 v 0.098 h -12.8008 z m -0.1016,0.098 h 12.9024 V 1489 h -12.9024 z m 0,0.1016 h 13 v 0.1016 h -13 z m -0.098,0.1016 h 13.0976 v 0.098 h -13.0976 z m 0,0.098 h 13.1992 v 0.1016 h -13.1992 z m -0.1016,0.1016 h 13.3008 v 0.098 H 3211.5 Z m 0,0.098 h 13.3984 v 0.2032 H 3211.5 Z m -0.1016,0.2032 h 13.5 v 0.098 h -13.5 z m 0,0.098 H 3225 v 0.1992 h -13.6016 z m -0.098,0.1992 H 3225 V 1490 h -13.6992 z m 0,0.1016 h 13.8008 v 0.1992 h -13.8008 z m -0.1016,0.1992 h 13.9024 v 0.1016 h -13.9024 z m 0,0.1016 h 14 v 0.3008 h -14 z m -0.098,0.3008 h 14.0976 v 0.098 h -14.0976 z m 0,0.098 h 14.1992 v 0.4024 h -14.1992 z m -0.1016,0.4024 h 14.3008 v 0.1992 H 3211 Z m 29.8008,-75.6016 h 14.5 v 79.3008 h -14.5 z m 0,79.3008 h 14.3984 v 0.098 h -14.3984 z m -119.4024,-32.6992 h 14.4024 v 33.0976 h -14.4024 z m 0.1016,33.0976 h 14.3008 v 0.1016 H 3121.5 Z m 119.3984,-0.3008 h 14.3008 v 0.6016 h -14.3008 z m 0,0.6016 h 14.2032 v 0.1992 h -14.2032 z m -119.394,-0.2068 h 14.1992 v 0.5 H 3121.5 Z m 119.5,0.3984 h 14.1016 v 0.1992 H 3241 Z m 0,0.1992 h 14 V 1496 h -14 z m -119.3984,-0.098 h 14 v 0.3008 h -14 z m 119.5,0.1992 H 3255 v 0.3008 h -13.8984 z m -119.4024,0.1016 H 3135.5 v 0.3984 h -13.8008 z m 119.5,0.1992 h 13.6992 v 0.3008 h -13.6992 z m -119.3984,0.1992 h 13.5976 v 0.3008 h -13.5976 z m 119.5,0.1016 h 13.5 v 0.2968 h -13.5 z m 0,0.2968 h 13.3984 V 1497 h -13.3984 z m -119.4024,-0.098 h 13.4024 v 0.3008 h -13.4024 z m 119.5,0.1992 h 13.3008 v 0.1016 h -13.3008 z M 3122,1497.1016 h 13.1992 v 0.098 H 3122 Z m 119.3984,0 h 13.2032 v 0.098 h -13.2032 z m 0.1016,0.098 h 13.1016 v 0.1016 H 3241.5 Z m -119.3984,0 h 13 v 0.1992 h -13 z m 119.3984,0.1016 h 13 v 0.098 h -13 z m 0.1016,0.098 H 3254.5 v 0.1016 h -12.8984 z m -119.4024,0 H 3135 v 0.2032 h -12.8008 z m 119.5,0.1016 h 12.6992 v 0.1992 h -12.6992 z m -119.3984,0.1016 h 12.5976 v 0.1992 h -12.5976 z m 119.5,0.098 h 12.5 v 0.1992 h -12.5 z m -119.4024,0.1016 h 12.4024 V 1498 h -12.4024 z m 119.5,0.098 h 12.3008 v 0.2032 h -12.3008 z M 3122.5,1498 h 12.1992 v 0.1992 H 3122.5 Z m 119.5,0.1016 h 12.1016 v 0.098 H 3242 Z m -119.3984,0.098 h 12 v 0.1016 h -12 z m 119.3984,0 h 12 v 0.1016 h -12 z m -119.3008,0.1016 H 3134.5 v 0.098 h -11.8008 z m 119.4024,0 H 3254 v 0.098 h -11.8984 z m 0.098,0.098 h 11.6992 v 0.1016 h -11.6992 z m -119.3984,0 h 11.5976 v 0.2032 h -11.5976 z m 119.5,0.1016 h 11.5 v 0.1016 h -11.5 z m -119.4024,0.1016 h 11.4024 v 0.098 h -11.4024 z m 119.5,0 h 11.3008 v 0.098 h -11.3008 z M 3123,1498.6992 h 11.1992 v 0.1016 H 3123 Z m 119.3984,0 h 11.2032 v 0.1016 h -11.2032 z m -119.2968,0.1016 h 11 v 0.098 h -11 z m 119.3984,0 h 11 v 0.098 h -11 z m -119.3008,0.098 H 3134 V 1499 h -10.8008 z m 119.4024,0 H 3253.5 V 1499 h -10.8984 z m 0.098,0.1016 h 10.6992 v 0.1016 h -10.6992 z m -119.3984,0 h 10.5976 v 0.1992 h -10.5976 z m 119.5,0.1016 h 10.5 v 0.098 h -10.5 z m -119.4024,0.098 h 10.4024 v 0.1016 h -10.4024 z m 119.5,0 h 10.3008 v 0.1016 h -10.3008 z m -119.3984,0.1016 h 10.1992 v 0.098 H 3123.5 Z m 119.5,0 h 10.1016 v 0.098 H 3243 Z m -119.3984,0.098 h 10 v 0.1016 h -10 z m 119.5,0 H 3253 v 0.1016 h -9.8984 z m -119.3008,0.1016 h 9.5976 v 0.1016 h -9.5976 z m 119.3984,0 h 9.6992 v 0.1016 h -9.6992 z m -119.3008,0.1016 h 9.4024 v 0.098 h -9.4024 z m 119.4024,0 h 9.5 v 0.098 h -9.5 z M 3124,1499.6992 h 9.1992 v 0.1016 H 3124 Z m 119.3984,0 h 9.2032 v 0.1016 h -9.2032 z m -119.2968,0.1016 h 9 v 0.098 h -9 z m 119.5,0 h 8.8984 v 0.098 h -8.8984 z m -119.3008,0.098 h 8.5976 V 1500 h -8.5976 z m 119.3984,0 h 8.6992 V 1500 h -8.6992 z M 3124.3984,1500 h 8.4024 v 0.1016 h -8.4024 z m 119.4024,0 h 8.5 v 0.1016 h -8.5 z m -119.3008,0.1016 h 8.1992 v 0.098 H 3124.5 Z m 119.3984,0 h 8.2032 v 0.098 h -8.2032 z m -119.1992,0.098 h 7.8008 v 0.1016 h -7.8008 z m 119.4024,0 H 3252 v 0.1016 h -7.8984 z m -119.3008,0.1016 h 7.5976 v 0.098 h -7.5976 z m 119.5,0 h 7.5 v 0.098 h -7.5 z M 3125,1500.3984 h 7.1992 V 1500.5 H 3125 Z m 119.5,0 h 7.1016 V 1500.5 H 3244.5 Z M 3125.1992,1500.5 H 3132 v 0.1016 h -6.8008 z m 119.4024,0 h 6.7968 v 0.1016 h -6.7968 z m -119.2032,0.1016 h 6.4024 v 0.098 h -6.4024 z m 119.4024,0 h 6.3984 v 0.098 h -6.3984 z m -119.1992,0.098 h 6 v 0.1016 h -6 z m 119.3984,0 h 6.1016 v 0.1016 H 3245 Z m -119.1992,0.1016 h 5.5976 v 0.098 h -5.5976 z m 119.3984,0 h 5.6992 v 0.098 h -5.6992 z m -119.0976,0.098 h 5 V 1501 h -5 z m 119.3984,0 h 5 V 1501 h -5 z M 3126.3984,1501 h 4.4024 v 0.1016 h -4.4024 z m 119.5,0 h 4.3008 v 0.1016 h -4.3008 z m -119.1992,0.1016 h 3.8008 v 0.098 h -3.8008 z m 119.5,0 h 3.6992 v 0.098 h -3.6992 z m -119.0976,0.098 h 3 v 0.1016 h -3 z m 119.3984,0 h 3.1016 v 0.1016 H 3246.5 Z m -118.8008,0.1016 h 1.8008 v 0.098 h -1.8008 z m 119.5,0 h 1.6992 v 0.098 h -1.6992 z m -96,-57.6016 h 14.5 v 65.1992 h -14.5 z m 0.1016,65.1992 h 14.3984 V 1509 h -14.3984 z M 3211,1491.3008 h 14.3984 v 17.8984 H 3211 Z m 0,17.8984 h 14.3008 v 0.1992 H 3211 Z M 3151.3008,1509 h 14.3008 v 0.6016 h -14.3008 z m 0.098,0.6016 h 14.2032 v 0.098 h -14.2032 z m 59.7032,-0.2032 h 14.1992 v 0.4024 h -14.1992 z m 0,0.4024 h 14.0976 v 0.098 h -14.0976 z m -59.7032,-0.1016 H 3165.5 V 1510 h -14.1016 z M 3151.5,1510 h 14 v 0.1016 h -14 z m 59.6992,-0.1016 h 14 v 0.2032 h -14 z m 0,0.2032 h 13.9024 v 0.098 h -13.9024 z m -59.6992,0 h 13.8984 v 0.1992 H 3151.5 Z m 0.1016,0.1992 h 13.7968 v 0.098 h -13.7968 z m 59.6992,-0.1016 h 13.8008 v 0.1992 h -13.8008 z m 0,0.1992 H 3225 v 0.1016 h -13.6992 z m -59.6992,0 h 13.6992 v 0.2032 h -13.6992 z m 0.098,0.2032 h 13.6016 v 0.098 h -13.6016 z m 59.6992,-0.1016 H 3225 v 0.3008 h -13.6016 z m 0,0.3008 h 13.5 v 0.098 h -13.5 z m -59.6992,-0.1016 h 13.5 V 1511 h -13.5 z m 59.8008,0.1992 h 13.3984 v 0.2032 H 3211.5 Z M 3151.8008,1511 h 13.3008 v 0.1992 h -13.3008 z m 59.8008,0.1016 h 13.1992 v 0.1992 h -13.1992 z m -59.7032,0.098 H 3165 v 0.1992 h -13.1016 z m 59.8008,0.1016 h 13 v 0.098 h -13 z m 0,0.098 h 12.9024 v 0.1016 h -12.9024 z m -59.6992,0 h 12.8984 v 0.2032 H 3152 Z m 59.8008,0.1016 h 12.8008 v 0.1016 h -12.8008 z m -59.6992,0.1016 h 12.6992 v 0.098 h -12.6992 z m 59.6992,0 H 3224.5 v 0.098 h -12.6992 z m -59.6016,0.098 h 12.6016 v 0.1016 h -12.6016 z m 59.6992,0 H 3224.5 v 0.1016 h -12.6016 z m -59.6992,0.1016 h 12.5 v 0.098 h -12.5 z m 59.6992,0 h 12.5 v 0.098 h -12.5 z m -59.5976,0.098 h 12.3984 v 0.1 h -12.3984 z m 59.6992,0 h 12.3984 v 0.1 H 3212 Z m -59.6992,0.1 h 12.3008 v 0.1016 h -12.3008 z m 59.6992,0 h 12.3008 v 0.1016 H 3212 Z m 0.1016,0.1016 h 12.1992 v 0.098 h -12.1992 z m -59.7032,0 H 3164.5 v 0.1992 h -12.1016 z m 59.8008,0.098 h 12 v 0.1016 h -12 z m -59.6992,0.1016 h 11.8984 v 0.098 H 3152.5 Z m 59.6992,0 h 11.9024 v 0.098 h -11.9024 z m -59.5976,0.098 h 11.6992 v 0.1016 h -11.6992 z m 59.6992,0 h 11.8008 v 0.1016 h -11.8008 z m 0.098,0.1016 H 3224 v 0.1016 h -11.6016 z m -59.6992,0 h 11.6016 v 0.1016 h -11.6016 z m 0,0.1016 h 11.5 v 0.098 h -11.5 z m 59.8008,0 h 11.3984 v 0.098 H 3212.5 Z m -59.6992,0.098 h 11.3008 v 0.1016 h -11.3008 z m 59.8008,0 h 11.1992 v 0.1016 h -11.1992 z m -59.7032,0.1016 H 3164 v 0.098 h -11.1016 z m 59.7032,0 h 11.0976 v 0.098 h -11.0976 z m -59.6016,0.098 h 10.8984 v 0.1 H 3153 Z m 59.6992,0 h 11 v 0.1 h -11 z m -59.598,0.1 h 10.6992 v 0.1016 h -10.6992 z m 59.6992,0 h 10.8008 v 0.1016 h -10.8008 z m 0.098,0.1016 H 3223.5 v 0.098 h -10.6016 z m -59.6992,0 h 10.6016 v 0.098 h -10.6016 z m 0,0.098 h 10.5 v 0.1016 h -10.5 z m 59.8008,0 h 10.3984 v 0.1016 H 3213 Z m -59.6992,0.1016 h 10.3008 v 0.098 h -10.3008 z m 59.6992,0 h 10.3008 v 0.098 H 3213 Z m -59.6016,0.098 H 3163.5 v 0.1016 h -10.1016 z m 59.8008,0 h 10 v 0.1016 h -10 z m -59.5976,0.1016 h 9.7968 v 0.1016 h -9.7968 z m 59.6992,0 h 9.8008 v 0.1016 h -9.8008 z m -59.6016,0.1016 h 9.5 v 0.098 h -9.5 z m 59.6992,0 H 3223 v 0.098 h -9.6016 z m -59.5976,0.098 h 9.3008 v 0.1016 h -9.3008 z m 59.6992,0 h 9.3008 v 0.1016 H 3213.5 Z m -59.6016,0.1016 H 3163 v 0.098 h -9.1016 z m 59.8008,0 h 9 v 0.098 h -9 z m -59.6992,0.098 h 8.8984 v 0.1 H 3154 Z m 59.8008,0 h 8.8008 v 0.1 h -8.8008 z m -59.602,0.1 h 8.5 v 0.1016 h -8.5 z m 59.6992,0 h 8.6016 v 0.1016 h -8.6016 z m -59.5976,0.1016 h 8.3008 v 0.098 h -8.3008 z m 59.6992,0 h 8.3984 v 0.098 H 3214 Z m -59.6016,0.098 h 8.1016 v 0.1016 h -8.1016 z m 59.7032,0 h 8.0976 v 0.1016 h -8.0976 z m -59.5,0.1016 h 7.6992 v 0.098 h -7.6992 z m 59.6992,0 H 3222 v 0.098 h -7.6992 z m -59.5,0.098 h 7.3008 v 0.1016 h -7.3008 z m 59.6992,0 h 7.3984 V 1514.5 H 3214.5 Z M 3155,1514.5 h 6.8984 v 0.1016 H 3155 Z m 59.6992,0 h 7 v 0.1016 h -7 z m -59.5,0.1016 h 6.6016 v 0.098 h -6.6016 z m 59.6992,0 h 6.6016 v 0.098 h -6.6016 z m -59.5976,0.098 h 6.3008 v 0.1016 h -6.3008 z m 59.8008,0 h 6.1992 v 0.1016 h -6.1992 z m -59.6016,0.1016 h 5.8984 v 0.098 H 3155.5 Z m 59.8008,0 h 5.8008 v 0.098 h -5.8008 z m -59.5,0.098 h 5.3008 V 1515 h -5.3008 z m 59.6992,0 h 5.3984 V 1515 H 3215.5 Z M 3156.1016,1515 h 4.6992 v 0.1016 h -4.6992 z m 59.6992,0 h 4.6992 v 0.1016 h -4.6992 z m -59.4024,0.1016 h 4.1016 v 0.098 h -4.1016 z m 59.8008,0 h 4 v 0.098 h -4 z m -59.3984,0.098 h 3.3984 v 0.1016 h -3.3984 z m 59.6992,0 h 3.3984 v 0.1016 H 3216.5 Z m -59.3008,0.1016 h 2.5 v 0.098 h -2.5 z m 59.6992,0 h 2.5 v 0.098 h -2.5 z m -58.8984,0.098 h 0.8984 V 1515.5 H 3158 Z m 59.6992,0 h 1 v 0.1016 h -1 z m -36.5976,-55.7968 H 3195.5 v 59.7968 h -14.3984 z m 0.098,59.7968 H 3195.5 v 0.2032 h -14.3008 z m 0,0.2032 h 14.1992 V 1520 h -14.1992 z m 0.1016,0.3984 h 14.0976 v 0.1016 h -14.0976 z m 0,0.1016 h 14 v 0.1992 h -14 z m 0.098,0.1992 h 13.9024 v 0.098 h -13.9024 z m 0,0.098 H 3195.2 v 0.3008 h -13.8008 z m 0.1016,0.3008 H 3195.2 v 0.1016 h -13.7 z m 0,0.1016 h 13.6016 V 1521 H 3181.5 Z m 0.1016,0.1992 h 13.5 v 0.1016 h -13.5 z m 0,0.1016 H 3195 v 0.1992 h -13.3984 z m 0.098,0.1992 H 3195 v 0.098 h -13.3008 z m 0,0.098 h 13.1992 v 0.1016 h -13.1992 z m 0.1016,0.1016 h 13 v 0.1992 h -13 z m 0.098,0.1992 h 12.8008 V 1521.9 H 3181.9 Z m 0.1016,0.1992 h 12.6016 v 0.1 H 3182 Z m 0.1016,0.1016 h 12.5 v 0.1016 h -12.5 z m 0,0.1016 H 3194.5 v 0.098 h -12.3984 z m 0.098,0.098 H 3194.5 v 0.1016 h -12.3008 z m 0,0.1016 h 12.1992 v 0.098 h -12.1992 z m 0.1016,0.098 h 12.0976 v 0.1016 h -12.0976 z m 0,0.1016 h 12 v 0.1016 h -12 z m 0.098,0.1016 h 11.8008 v 0.098 h -11.8008 z m 0.1016,0.098 h 11.6016 v 0.1016 H 3182.5 Z m 0.1016,0.1016 H 3194 v 0.098 h -11.3984 z m 0.098,0.098 H 3194 V 1523 h -11.3008 z m 0.1016,0.1016 h 11.0976 v 0.1016 h -11.0976 z m 0,0.1016 h 11 v 0.098 h -11 z m 0.098,0.098 h 10.8008 v 0.1016 h -10.8008 z m 0.1016,0.1016 h 10.6016 v 0.098 H 3183 Z m 0.1016,0.098 H 3193.5 v 0.1016 h -10.3984 z m 0.098,0.1016 H 3193.5 v 0.1016 h -10.3008 z m 0.1016,0.1016 h 10.0976 v 0.098 h -10.0976 z m 0.098,0.098 h 9.8008 v 0.1016 h -9.8008 z m 0.1016,0.1016 h 9.6016 v 0.098 H 3183.5 Z m 0.1016,0.098 H 3193 V 1524 h -9.3984 z m 0.1992,0.1016 h 9.0976 v 0.1016 h -9.0976 z m 0.098,0.1016 h 8.8008 v 0.098 h -8.8008 z m 0.1016,0.098 h 8.6016 v 0.1016 H 3184 Z m 0.1016,0.1016 h 8.3984 v 0.098 h -8.3984 z m 0.098,0.098 h 8.1992 v 0.1016 h -8.1992 z m 0.1992,0.1016 h 7.8008 v 0.1016 h -7.8008 z m 0.2032,0.1016 H 3192 v 0.098 h -7.3984 z m 0.1992,0.098 h 7 v 0.1016 h -7 z m 0.1992,0.1016 h 6.6992 v 0.098 H 3185 Z m 0.1992,0.098 h 6.296 V 1525 h -6.3008 z m 0.1016,0.1016 h 6 v 0.1016 h -6 z m 0.3008,0.1016 h 5.5 v 0.098 h -5.5 z m 0.2968,0.098 h 4.8008 v 0.1016 h -4.8008 z m 0.3008,0.1016 h 4.1992 v 0.098 h -4.1992 z m 0.3008,0.098 h 3.6016 v 0.094 H 3186.5 Z m 0.3984,0.1016 h 2.8008 v 0.1016 h -2.8008 z m 0.8008,0.1016 H 3189 v 0.027 h -1.3008 z m 0,0"
         id="path57" />
    </clipPath>
    <clipPath
       id="clip-1">
      <path
         clip-rule="evenodd"
         d="m 3151.2695,1444.3594 c 0,-3.9688 3.2188,-7.1875 7.1914,-7.1875 3.9688,0 7.1875,3.2187 7.1875,7.1875 v 63.8594 c 0,3.9726 -3.2187,7.1914 -7.1875,7.1914 -3.9726,0 -7.1914,-3.2188 -7.1914,-7.1914 z m -29.8593,-126.7578 c 0,-3.9727 3.2187,-7.1914 7.1914,-7.1914 3.9687,0 7.1875,3.2187 7.1875,7.1914 v 78.0703 c 0,3.9687 -3.2188,7.1875 -7.1875,7.1875 -3.9727,0 -7.1914,-3.2188 -7.1914,-7.1875 z m 59.7187,142.9687 c 0,-3.9687 3.2227,-7.1914 7.1914,-7.1914 3.9688,0 7.1797,3.2227 7.1797,7.1914 v 57.8789 c 0,3.961 -3.2187,7.1797 -7.1797,7.1797 -3.9687,0 -7.1914,-3.207 -7.1914,-7.1875 z m 44.2422,47.6485 c 0,3.9726 -3.2109,7.1914 -7.1914,7.1914 -3.9688,0 -7.1797,-3.2188 -7.1797,-7.1914 v -15.9883 c 0,-3.9688 3.2109,-7.1797 7.1797,-7.1797 3.9805,0 7.1914,3.2109 7.1914,7.1797 z m 59.707,-92.9102 c 0,3.9609 -3.207,7.1914 -7.1875,7.1914 -3.9609,0 -7.1797,-3.2305 -7.1797,-7.1914 v -67.1875 c 0,-3.9727 3.2188,-7.1914 7.1875,-7.1914 3.9727,0 7.1797,3.2187 7.1797,7.1914 z m 0.012,48.3398 c 0,3.9727 -3.2187,7.1914 -7.1914,7.1914 -3.9687,0 -7.1875,-3.2187 -7.1875,-7.1914 v -18.7187 c 0,-3.9688 3.2188,-7.1914 7.1875,-7.1914 3.9727,0 7.1914,3.2226 7.1914,7.1914 z m -29.8593,-115.0703 c 0,3.9727 -3.2188,7.1914 -7.1914,7.1914 -3.9688,0 -7.1875,-3.2187 -7.1875,-7.1914 v -30.9765 c 0,-3.9727 3.2187,-7.1914 7.1875,-7.1914 3.9726,0 7.1914,3.2187 7.1914,7.1914 z m 0,38.1211 c 0,3.9727 -3.2188,7.1914 -7.1914,7.1914 -3.9688,0 -7.1797,-3.2187 -7.1797,-7.1914 v -11.9375 c 0,-3.9726 3.2109,-7.1836 7.1797,-7.1836 3.9726,0 7.1914,3.211 7.1914,7.1836 z m -29.8594,79.3516 c 0,3.9687 -3.2227,7.1875 -7.1914,7.1875 -3.9688,0 -7.1797,-3.2188 -7.1797,-7.1875 v -21.6914 c 0,-3.9688 3.2109,-7.1875 7.1797,-7.1875 3.9687,0 7.1914,3.2187 7.1914,7.1875 z m 29.8594,28.1211 c 0,3.9687 -3.2188,7.1875 -7.1914,7.1875 -3.9688,0 -7.1875,-3.2188 -7.1875,-7.1875 v -78.0703 c 0,-3.9727 3.2187,-7.1914 7.1875,-7.1914 3.9726,0 7.1914,3.2187 7.1914,7.1914 z m -163.6719,-97.711 c 0,-3.9609 3.2227,-7.1796 7.1797,-7.1796 3.9726,0 7.1914,3.2187 7.1914,7.1796 v 67.1875 c 0,3.9727 -3.2188,7.1914 -7.1914,7.1914 -3.957,0 -7.1875,-3.2187 -7.1875,-7.1914 z m -0.01,-48.3398 c 0,-3.9727 3.2187,-7.1914 7.1875,-7.1914 3.9726,0 7.1914,3.2187 7.1914,7.1914 v 18.7187 c 0,3.9688 -3.2188,7.1915 -7.1914,7.1915 -3.9688,0 -7.1875,-3.2227 -7.1875,-7.1915 z m 29.8594,115.0703 c 0,-3.9726 3.2187,-7.1914 7.1914,-7.1914 3.9687,0 7.1875,3.2188 7.1875,7.1914 v 30.9805 c 0,3.9687 -3.2188,7.1875 -7.1875,7.1875 -3.9727,0 -7.1914,-3.2188 -7.1914,-7.1875 z m 0,-38.1211 c 0,-3.9687 3.2187,-7.1914 7.1914,-7.1914 3.9687,0 7.1875,3.2227 7.1875,7.1914 v 11.9414 c 0,3.9688 -3.2188,7.1875 -7.1875,7.1875 -3.9727,0 -7.1914,-3.2187 -7.1914,-7.1875 z m 0,0"
         id="path58" />
    </clipPath>
  </defs>
  <sodipodi:namedview
     id="namedview10"
     pagecolor="#000000"
     bordercolor="#000000"
     borderopacity="0.25"
     inkscape:showpageshadow="2"
     inkscape:pageopacity="0.0"
     inkscape:pagecheckerboard="0"
     inkscape:deskcolor="#d1d1d1"
     inkscape:zoom="2.421146"
     inkscape:cx="113.58257"
     inkscape:cy="110.8979"
     inkscape:window-width="4096"
     inkscape:window-height="2081"
     inkscape:window-x="2391"
     inkscape:window-y="-9"
     inkscape:window-maximized="1"
     inkscape:current-layer="svg10" />
  <style
     id="style1" />
  <g
     clip-path="url(#clip-0)"
     id="g3951"
     transform="matrix(0,0.79192875,-0.79192875,0,1229.9704,-2417.9221)"
     style="fill:#ffffff">
    <g
       clip-path="url(#clip-1)"
       id="g3950"
       style="fill:#ffffff">
      <path
         fill-rule="nonzero"
         fill="url(#linear-pattern-1)"
         d="m 3285.0898,1525.6289 v -215.2187 h -193.539 v 215.2187 z m 0,0"
         id="path3950"
         style="fill:#ffffff" />
    </g>
  </g>
</svg>
